<?xml version="1.0" encoding="UTF-8" standalone="no"?>
<!DOCTYPE svg PUBLIC "-//W3C//DTD SVG 1.1//EN" "http://www.w3.org/Graphics/SVG/1.1/DTD/svg11.dtd">
<svg version="1.1" xmlns="http://www.w3.org/2000/svg" xmlns:xlink="http://www.w3.org/1999/xlink" preserveAspectRatio="xMidYMid meet" viewBox="0 0 535.5 535.5" width="535.5" height="535.5"><defs><path d="M197.52 1185.1C210.89 1185.1 317.89 1185.1 331.27 1185.1C339.18 1185.1 345.6 1178.68 345.6 1170.77C345.6 1169.82 345.6 1165.04 345.6 1156.44L183.19 1156.44L183.19 1170.77C187.47 1180.33 192.24 1185.1 197.52 1185.1Z" id="ewZ6IQGLo"></path><path d="M96.4 294.81C95.78 199.17 96.4 149.59 96.4 117.93C96.4 90.7 104.4 65.74 117.7 46.33C134.62 21.62 160.13 5.89 188.67 5.89C235.31 5.89 301.41 5.89 329.59 5.89C380.55 5.89 421.87 47.2 421.87 98.16C421.87 184.69 421.87 354.82 421.87 442.05C421.87 491.08 382.12 530.83 333.09 530.83C285.75 530.83 239.36 530.83 193.73 530.83C140.01 530.83 96.49 487.22 96.6 433.5C96.71 378.5 96.64 332.27 96.4 294.81Z" id="a1kqplmTVE"></path><path d="M272.33 290.74L276.44 291.33L280.49 292.07L284.49 292.97L288.42 294.03L292.3 295.24L296.1 296.59L299.84 298.08L303.5 299.72L307.09 301.49L310.59 303.4L314.02 305.43L317.35 307.59L320.6 309.88L323.75 312.29L326.81 314.81L329.76 317.44L332.61 320.19L335.36 323.04L338 326L340.52 329.05L342.92 332.2L345.21 335.45L347.37 338.79L349.41 342.21L351.31 345.72L353.08 349.3L354.72 352.96L356.21 356.7L357.57 360.51L358.77 364.38L359.83 368.32L360.73 372.31L361.48 376.37L362.06 380.47L362.49 384.63L362.74 388.83L362.83 393.08L362.74 397.33L362.49 401.53L362.06 405.69L361.48 409.8L360.73 413.85L359.83 417.85L358.77 421.78L357.57 425.66L356.21 429.46L354.72 433.2L353.08 436.86L351.31 440.45L349.41 443.95L347.37 447.38L345.21 450.71L342.92 453.96L340.52 457.11L338 460.17L335.36 463.12L332.61 465.97L329.76 468.72L326.81 471.35L323.75 473.88L320.6 476.28L317.35 478.57L314.02 480.73L310.59 482.77L307.09 484.67L303.5 486.44L299.84 488.08L296.1 489.57L292.3 490.93L288.42 492.13L284.49 493.19L280.49 494.09L276.44 494.84L272.33 495.42L268.17 495.84L263.97 496.1L259.72 496.19L255.47 496.1L251.27 495.84L247.11 495.42L243.01 494.84L238.95 494.09L234.96 493.19L231.02 492.13L227.15 490.93L223.34 489.57L219.6 488.08L215.94 486.44L212.36 484.67L208.85 482.77L205.43 480.73L202.09 478.57L198.85 476.28L195.69 473.88L192.64 471.35L189.68 468.72L186.83 465.97L184.08 463.12L181.45 460.17L178.93 457.11L176.52 453.96L174.23 450.71L172.07 447.38L170.04 443.95L168.13 440.45L166.36 436.86L164.72 433.2L163.23 429.46L161.88 425.66L160.67 421.78L159.61 417.85L158.71 413.85L157.97 409.8L157.38 405.69L156.96 401.53L156.7 397.33L156.62 393.08L156.7 388.83L156.96 384.63L157.38 380.47L157.97 376.37L158.71 372.31L159.61 368.32L160.67 364.38L161.88 360.51L163.23 356.7L164.72 352.96L166.36 349.3L168.13 345.72L170.04 342.21L172.07 338.79L174.23 335.45L176.52 332.2L178.93 329.05L181.45 326L184.08 323.04L186.83 320.19L189.68 317.44L192.64 314.81L195.69 312.29L198.85 309.88L202.09 307.59L205.43 305.43L208.85 303.4L212.36 301.49L215.94 299.72L219.6 298.08L223.34 296.59L227.15 295.24L231.02 294.03L234.96 292.97L238.95 292.07L243.01 291.33L247.11 290.74L251.27 290.32L255.47 290.06L259.72 289.98L263.97 290.06L268.17 290.32L268.17 290.32L272.33 290.74ZM201.19 362.48L199.81 364.8L198.52 367.18L197.32 369.61L196.21 372.1L195.19 374.63L194.28 377.21L193.46 379.84L192.74 382.51L192.13 385.22L191.62 387.97L191.23 390.75L190.94 393.57L190.77 396.42L190.71 399.3L190.77 402.19L190.94 405.04L191.23 407.86L191.62 410.64L192.13 413.39L192.74 416.1L193.46 418.77L194.28 421.4L195.19 423.98L196.21 426.52L197.32 429L198.52 431.43L199.81 433.81L201.19 436.13L202.66 438.39L204.21 440.6L205.84 442.73L207.55 444.81L209.34 446.81L211.2 448.75L213.13 450.61L215.14 452.4L217.21 454.11L219.35 455.74L221.55 457.29L223.81 458.76L226.14 460.14L228.51 461.43L230.95 462.63L233.43 463.74L235.96 464.75L238.55 465.67L241.17 466.49L243.84 467.2L246.55 467.82L249.3 468.32L252.09 468.72L254.91 469.01L257.76 469.18L260.64 469.24L263.52 469.18L266.37 469.01L269.19 468.72L271.97 468.32L274.72 467.82L277.43 467.2L280.1 466.49L282.73 465.67L285.31 464.75L287.84 463.74L290.33 462.63L292.76 461.43L295.14 460.14L297.46 458.76L299.72 457.29L301.92 455.74L304.06 454.11L306.13 452.4L308.13 450.61L310.07 448.75L311.93 446.81L313.72 444.81L315.43 442.73L317.06 440.6L318.61 438.39L320.08 436.13L321.46 433.81L322.75 431.43L323.95 429L325.06 426.52L326.08 423.98L326.99 421.4L327.81 418.77L328.53 416.1L329.14 413.39L329.64 410.64L330.04 407.86L330.33 405.04L330.5 402.19L330.56 399.3L330.5 396.42L330.33 393.57L330.04 390.75L329.64 387.97L329.14 385.22L328.53 382.51L327.81 379.84L326.99 377.21L326.08 374.63L325.06 372.1L323.95 369.61L322.75 367.18L321.46 364.8L320.08 362.48L318.61 360.22L317.43 358.55L203.83 358.55L202.66 360.22L202.66 360.22L201.19 362.48ZM246.57 424.74L247.74 425.33L248.82 426.06L249.79 426.92L250.65 427.89L251.38 428.97L251.97 430.14L252.4 431.4L252.67 432.72L252.77 434.1L252.67 435.47L252.4 436.79L251.97 438.04L251.38 439.21L250.65 440.29L249.79 441.27L248.82 442.13L247.74 442.86L246.57 443.45L245.32 443.88L244 444.15L242.63 444.25L241.25 444.15L239.93 443.88L238.68 443.45L237.5 442.86L236.42 442.13L235.45 441.27L234.59 440.29L233.86 439.21L233.27 438.04L232.84 436.79L232.57 435.47L232.48 434.1L232.57 432.72L232.84 431.4L233.27 430.14L233.86 428.97L234.59 427.89L235.45 426.92L236.42 426.06L237.5 425.33L238.68 424.74L239.93 424.31L241.25 424.04L242.63 423.94L244 424.04L245.32 424.31L245.32 424.31L246.57 424.74ZM285.37 424.41L286.54 425L287.62 425.73L288.6 426.59L289.45 427.56L290.18 428.64L290.77 429.82L291.2 431.07L291.47 432.39L291.57 433.77L291.47 435.14L291.2 436.46L290.77 437.71L290.18 438.89L289.45 439.97L288.6 440.94L287.62 441.8L286.54 442.53L285.37 443.12L284.12 443.56L282.81 443.83L281.43 443.92L280.05 443.83L278.73 443.56L277.48 443.12L276.31 442.53L275.23 441.8L274.25 440.94L273.39 439.97L272.66 438.89L272.08 437.71L271.64 436.46L271.37 435.14L271.28 433.77L271.37 432.39L271.64 431.07L272.08 429.82L272.66 428.64L273.39 427.56L274.25 426.59L275.23 425.73L276.31 425L277.48 424.41L278.73 423.98L280.05 423.71L281.43 423.62L282.81 423.71L284.12 423.98L284.12 423.98L285.37 424.41ZM264.58 393.33L265.76 393.92L266.83 394.65L267.81 395.51L268.66 396.48L269.39 397.56L269.98 398.74L270.42 399.99L270.69 401.31L270.78 402.69L270.69 404.07L270.42 405.39L269.98 406.64L269.39 407.81L268.66 408.89L267.81 409.87L266.83 410.73L265.76 411.45L264.58 412.04L263.33 412.48L262.02 412.75L260.64 412.84L259.26 412.75L257.94 412.48L256.69 412.04L255.52 411.45L254.44 410.73L253.46 409.87L252.6 408.89L251.88 407.81L251.29 406.64L250.85 405.39L250.58 404.07L250.49 402.69L250.58 401.31L250.85 399.99L251.29 398.74L251.88 397.56L252.6 396.48L253.46 395.51L254.44 394.65L255.52 393.92L256.69 393.33L257.94 392.9L259.26 392.63L260.64 392.54L262.02 392.63L263.33 392.9L263.33 392.9L264.58 393.33ZM226.51 393.26L227.69 393.85L228.77 394.58L229.74 395.43L230.6 396.41L231.33 397.49L231.92 398.66L232.36 399.91L232.63 401.23L232.72 402.61L232.63 403.99L232.36 405.31L231.92 406.56L231.33 407.74L230.6 408.82L229.74 409.79L228.77 410.65L227.69 411.38L226.51 411.97L225.26 412.4L223.94 412.67L222.57 412.76L221.19 412.67L219.87 412.4L218.62 411.97L217.44 411.38L216.36 410.65L215.39 409.79L214.53 408.82L213.8 407.74L213.21 406.56L212.78 405.31L212.51 403.99L212.42 402.61L212.51 401.23L212.78 399.91L213.21 398.66L213.8 397.49L214.53 396.41L215.39 395.43L216.36 394.58L217.44 393.85L218.62 393.26L219.87 392.82L221.19 392.55L222.57 392.46L223.94 392.55L225.26 392.82L225.26 392.82L226.51 393.26ZM299.94 391.39L301.11 391.98L302.19 392.71L303.17 393.57L304.03 394.54L304.75 395.62L305.34 396.8L305.78 398.05L306.05 399.37L306.14 400.75L306.05 402.13L305.78 403.45L305.34 404.7L304.75 405.87L304.03 406.95L303.17 407.93L302.19 408.79L301.11 409.52L299.94 410.1L298.69 410.54L297.37 410.81L295.99 410.9L294.61 410.81L293.29 410.54L292.04 410.1L290.87 409.52L289.79 408.79L288.81 407.93L287.96 406.95L287.23 405.87L286.64 404.7L286.2 403.45L285.93 402.13L285.84 400.75L285.93 399.37L286.2 398.05L286.64 396.8L287.23 395.62L287.96 394.54L288.81 393.57L289.79 392.71L290.87 391.98L292.04 391.39L293.29 390.96L294.61 390.69L295.99 390.6L297.37 390.69L298.69 390.96L298.69 390.96L299.94 391.39ZM285.31 373.33L286.26 374.11L287.04 375.05L287.63 376.14L288 377.34L288.13 378.62L288 379.91L287.63 381.11L287.04 382.19L286.26 383.14L285.31 383.92L284.23 384.5L283.03 384.88L281.74 385.01L280.46 384.88L279.26 384.5L278.17 383.92L277.23 383.14L276.45 382.19L275.86 381.11L275.48 379.91L275.35 378.62L275.48 377.34L275.86 376.14L276.45 375.05L277.23 374.11L278.17 373.33L279.26 372.74L280.46 372.36L281.74 372.23L283.03 372.36L284.23 372.74L284.23 372.74L285.31 373.33ZM242.25 373.33L243.19 374.11L243.97 375.05L244.56 376.14L244.94 377.34L245.07 378.62L244.94 379.91L244.56 381.11L243.97 382.19L243.19 383.14L242.25 383.92L241.16 384.5L239.96 384.88L238.68 385.01L237.39 384.88L236.19 384.5L235.11 383.92L234.16 383.14L233.38 382.19L232.79 381.11L232.42 379.91L232.29 378.62L232.42 377.34L232.79 376.14L233.38 375.05L234.16 374.11L235.11 373.33L236.19 372.74L237.39 372.36L238.68 372.23L239.96 372.36L241.16 372.74L241.16 372.74L242.25 373.33Z" id="e3rE0iBKj9"></path><path d="M369.07 274.09L370.37 274.44L371.6 274.93L372.77 275.53L373.86 276.25L374.87 277.08L375.8 278L376.62 279.01L377.34 280.1L377.94 281.27L378.43 282.5L378.78 283.8L379 285.14L379.08 286.53L379 287.91L378.78 289.26L378.43 290.55L377.94 291.78L377.34 292.95L376.62 294.04L375.8 295.06L374.87 295.98L373.86 296.8L372.77 297.52L371.6 298.13L370.37 298.61L369.07 298.97L367.73 299.19L366.34 299.26L364.96 299.19L363.61 298.97L362.32 298.61L361.09 298.13L359.92 297.52L358.83 296.8L357.82 295.98L356.89 295.06L356.07 294.04L355.35 292.95L354.75 291.78L354.26 290.55L353.91 289.26L353.69 287.91L353.61 286.53L353.69 285.14L353.91 283.8L354.26 282.5L354.75 281.27L355.35 280.1L356.07 279.01L356.89 278L357.82 277.08L358.83 276.25L359.92 275.53L361.09 274.93L362.32 274.44L363.61 274.09L364.96 273.87L366.34 273.79L367.73 273.87L369.07 274.09ZM363.79 277.24L362.6 277.66L361.49 278.21L360.46 278.91L359.54 279.72L358.72 280.65L358.03 281.67L357.47 282.78L357.06 283.97L356.81 285.22L356.72 286.53L356.81 287.83L357.06 289.09L357.47 290.27L358.03 291.38L358.72 292.41L359.54 293.33L360.46 294.15L361.49 294.84L362.6 295.4L363.79 295.81L365.04 296.07L366.34 296.15L367.65 296.07L368.9 295.81L370.09 295.4L371.2 294.84L372.23 294.15L373.15 293.33L373.97 292.41L374.66 291.38L375.22 290.27L375.63 289.09L375.88 287.83L375.97 286.53L375.88 285.22L375.63 283.97L375.22 282.78L374.66 281.67L373.97 280.65L373.15 279.72L372.23 278.91L371.2 278.21L370.09 277.66L368.9 277.24L367.65 276.99L366.34 276.9L365.04 276.99L363.79 277.24Z" id="d4L2TECCV"></path><path d="M136.65 185.81L137.92 186.12L139.16 186.5L140.36 186.97L141.52 187.5L142.64 188.11L143.72 188.79L144.74 189.53L145.72 190.34L146.64 191.2L147.51 192.13L148.31 193.1L149.06 194.13L149.73 195.2L150.34 196.32L150.88 197.49L151.34 198.69L151.73 199.92L152.03 201.19L152.25 202.5L152.39 203.82L152.43 205.18L152.39 206.53L152.25 207.86L152.03 209.16L151.73 210.43L151.34 211.66L150.88 212.86L150.34 214.03L149.73 215.15L149.06 216.22L148.31 217.25L147.51 218.22L146.64 219.15L145.72 220.01L144.74 220.82L143.72 221.56L142.64 222.24L141.52 222.85L140.36 223.38L139.16 223.85L138.52 224.05L138.69 224.1L139.89 224.56L141.06 225.1L142.18 225.71L143.25 226.39L144.28 227.13L145.25 227.93L146.18 228.8L147.04 229.72L147.85 230.7L148.59 231.72L149.27 232.8L149.88 233.92L150.41 235.08L150.88 236.28L151.05 236.84L151.26 236.17L151.72 234.97L152.26 233.81L152.86 232.69L153.54 231.61L154.28 230.58L155.09 229.61L155.96 228.69L156.88 227.82L157.85 227.02L158.88 226.27L159.96 225.59L161.08 224.99L162.24 224.45L163.44 223.99L164.68 223.6L165.95 223.3L167.25 223.08L168.57 222.94L169.93 222.9L171.28 222.94L172.61 223.08L173.91 223.3L175.18 223.6L176.42 223.99L177.62 224.45L178.78 224.99L179.9 225.59L180.97 226.27L182 227.02L182.98 227.82L183.9 228.69L184.76 229.61L185.57 230.58L186.31 231.61L186.99 232.69L187.6 233.81L188.14 234.97L188.6 236.17L188.98 237.41L189.29 238.68L189.51 239.98L189.64 241.31L189.69 242.66L189.68 243.09L187.64 243.09L187.65 242.78L187.6 241.45L187.45 240.15L187.22 238.87L186.89 237.63L186.48 236.43L185.99 235.26L185.42 234.14L184.77 233.07L184.05 232.05L183.27 231.08L182.42 230.17L181.51 229.32L180.54 228.53L179.51 227.81L178.44 227.17L177.32 226.6L176.16 226.11L174.95 225.69L173.71 225.37L172.44 225.13L171.13 224.99L169.8 224.94L168.47 224.99L167.16 225.13L165.89 225.37L164.65 225.69L163.44 226.11L162.28 226.6L161.16 227.17L160.09 227.81L159.06 228.53L158.09 229.32L157.18 230.17L156.33 231.08L155.55 232.05L154.83 233.07L154.18 234.14L153.61 235.26L153.12 236.43L152.71 237.63L152.38 238.87L152.15 240.15L152 241.45L151.96 242.58L151.97 242.77L151.96 242.98L151.96 243.09L151.96 243.09L151.92 244.12L151.79 245.45L151.57 246.75L151.26 248.02L150.88 249.26L150.41 250.46L149.88 251.62L149.27 252.74L148.59 253.82L147.85 254.84L147.04 255.82L146.18 256.74L145.25 257.61L144.28 258.41L143.25 259.16L142.18 259.83L141.06 260.44L139.89 260.98L138.69 261.44L137.46 261.83L136.19 262.13L134.89 262.35L133.56 262.49L132.21 262.53L130.85 262.49L129.52 262.35L128.22 262.13L126.95 261.83L125.72 261.44L124.52 260.98L123.35 260.44L122.23 259.83L121.16 259.16L120.13 258.41L119.16 257.61L118.23 256.74L117.37 255.82L116.56 254.84L115.82 253.82L115.14 252.74L114.53 251.62L114 250.46L113.53 249.26L113.15 248.02L112.84 246.75L112.62 245.45L112.49 244.12L112.44 242.77L112.49 241.42L112.62 240.09L112.84 238.79L113.15 237.52L113.53 236.28L114 235.08L114.53 233.92L115.14 232.8L115.82 231.72L116.56 230.7L117.37 229.72L118.23 228.8L119.16 227.93L120.13 227.13L121.16 226.39L122.23 225.71L123.35 225.1L124.52 224.56L125.72 224.1L126.36 223.9L126.18 223.85L124.98 223.38L123.82 222.85L122.7 222.24L121.62 221.56L120.6 220.82L119.62 220.01L118.7 219.15L117.83 218.22L117.03 217.25L116.28 216.22L115.61 215.15L115 214.03L114.46 212.86L114 211.66L113.61 210.43L113.31 209.16L113.09 207.86L112.95 206.53L112.91 205.18L112.95 203.82L113.09 202.5L113.31 201.19L113.61 199.92L114 198.69L114.46 197.49L115 196.32L115.61 195.2L116.28 194.13L117.03 193.1L117.83 192.13L118.7 191.2L119.62 190.34L120.6 189.53L121.62 188.79L122.7 188.11L123.82 187.5L124.98 186.97L126.18 186.5L127.42 186.12L128.69 185.81L129.99 185.59L131.32 185.46L132.67 185.41L134.02 185.46L135.35 185.59L135.35 185.59L136.65 185.81ZM128.17 225.48L126.93 225.81L125.72 226.22L124.56 226.71L123.44 227.28L122.36 227.93L121.34 228.65L120.37 229.43L119.46 230.28L118.61 231.19L117.83 232.16L117.11 233.18L116.46 234.26L115.89 235.38L115.4 236.54L114.99 237.75L114.66 238.99L114.43 240.26L114.28 241.57L114.23 242.9L114.28 244.23L114.43 245.53L114.66 246.81L114.99 248.05L115.4 249.25L115.89 250.42L116.46 251.54L117.11 252.61L117.83 253.63L118.61 254.6L119.46 255.51L120.37 256.36L121.34 257.15L122.36 257.87L123.44 258.51L124.56 259.08L125.72 259.58L126.93 259.99L128.17 260.31L129.44 260.55L130.75 260.69L132.08 260.74L133.41 260.69L134.71 260.55L135.99 260.31L137.23 259.99L138.43 259.58L139.6 259.08L140.72 258.51L141.79 257.87L142.82 257.15L143.78 256.36L144.7 255.51L145.55 254.6L146.33 253.63L147.05 252.61L147.69 251.54L148.26 250.42L148.76 249.25L149.17 248.05L149.49 246.81L149.73 245.53L149.88 244.23L149.92 242.9L149.88 241.57L149.73 240.26L149.49 238.99L149.17 237.75L148.76 236.54L148.26 235.38L147.69 234.26L147.05 233.18L146.33 232.16L145.55 231.19L144.7 230.28L143.78 229.43L142.82 228.65L141.79 227.93L140.72 227.28L139.6 226.71L138.43 226.22L137.23 225.81L135.99 225.48L134.71 225.24L133.41 225.1L132.08 225.05L130.75 225.1L129.44 225.24L129.44 225.24L128.17 225.48ZM128.63 187.89L127.39 188.21L126.19 188.62L125.02 189.12L123.9 189.69L122.83 190.33L121.81 191.05L120.84 191.84L119.93 192.69L119.08 193.6L118.29 194.56L117.57 195.59L116.93 196.66L116.36 197.78L115.86 198.95L115.45 200.15L115.13 201.39L114.89 202.67L114.75 203.97L114.7 205.3L114.75 206.63L114.89 207.94L115.13 209.21L115.45 210.45L115.86 211.66L116.36 212.82L116.93 213.94L117.57 215.02L118.29 216.04L119.08 217.01L119.93 217.92L120.84 218.77L121.81 219.55L122.83 220.27L123.9 220.92L125.02 221.49L126.19 221.98L127.39 222.39L128.63 222.72L129.91 222.95L130.82 223.06L130.85 223.05L132.21 223.01L133.56 223.05L133.94 223.09L135.18 222.95L136.45 222.72L137.7 222.39L138.9 221.98L140.06 221.49L141.18 220.92L142.26 220.27L143.28 219.55L144.25 218.77L145.16 217.92L146.01 217.01L146.8 216.04L147.51 215.02L148.16 213.94L148.73 212.82L149.22 211.66L149.63 210.45L149.96 209.21L150.2 207.94L150.34 206.63L150.39 205.3L150.34 203.97L150.2 202.67L149.96 201.39L149.63 200.15L149.22 198.95L148.73 197.78L148.16 196.66L147.51 195.59L146.8 194.56L146.01 193.6L145.16 192.69L144.25 191.84L143.28 191.05L142.26 190.33L141.18 189.69L140.06 189.12L138.9 188.62L137.7 188.21L136.45 187.89L135.18 187.65L133.87 187.5L132.54 187.46L131.21 187.5L129.91 187.65L129.91 187.65L128.63 187.89ZM131.57 172.85L134.08 172.85L134.08 185.08L131.57 185.08L131.57 185.08L131.57 172.85ZM133.77 134.57L133.91 134.57L133.91 170.21L134.7 170.13L135.97 169.89L137.22 169.56L138.42 169.15L139.58 168.66L140.71 168.09L141.78 167.44L142.8 166.73L143.77 165.94L144.68 165.09L145.53 164.18L146.32 163.21L147.03 162.19L147.68 161.12L148.25 159.99L148.74 158.83L148.99 158.11L151.09 158.11L150.86 158.84L150.4 160.04L149.86 161.2L149.25 162.32L148.58 163.39L147.83 164.42L147.03 165.4L146.16 166.32L145.24 167.18L144.26 167.99L143.24 168.73L142.16 169.41L141.04 170.02L139.88 170.56L138.68 171.02L137.44 171.4L136.17 171.71L134.87 171.93L133.54 172.06L132.19 172.11L130.84 172.06L129.51 171.93L128.21 171.71L126.94 171.4L125.7 171.02L124.5 170.56L123.34 170.02L122.22 169.41L121.14 168.73L120.12 167.99L119.14 167.18L118.22 166.32L117.35 165.4L116.55 164.42L115.81 163.39L115.13 162.32L114.52 161.2L113.98 160.04L113.52 158.84L113.13 157.6L112.83 156.33L112.61 155.03L112.47 153.7L112.43 152.35L112.47 151L112.61 149.67L112.83 148.37L113.13 147.1L113.52 145.86L113.98 144.66L114.52 143.5L115.13 142.38L115.81 141.3L116.55 140.27L117.35 139.3L118.22 138.38L119.14 137.51L120.12 136.7L121.14 135.96L122.22 135.28L123.34 134.68L124.5 134.14L125.7 133.68L126.94 133.29L128.21 132.99L129.51 132.77L130.84 132.63L132.19 132.58L133.54 132.63L133.77 132.65L133.77 132.65L133.77 134.57ZM128.15 135.06L126.91 135.38L125.71 135.79L124.54 136.29L123.42 136.86L122.35 137.5L121.33 138.22L120.36 139.01L119.45 139.86L118.6 140.77L117.81 141.74L117.09 142.76L116.45 143.83L115.88 144.95L115.38 146.12L114.97 147.32L114.65 148.56L114.41 149.84L114.27 151.14L114.22 152.47L114.27 153.81L114.41 155.11L114.65 156.38L114.97 157.63L115.38 158.83L115.88 159.99L116.45 161.12L117.09 162.19L117.81 163.21L118.6 164.18L119.45 165.09L120.36 165.94L121.33 166.73L122.35 167.44L123.42 168.09L124.54 168.66L125.71 169.15L126.91 169.56L128.15 169.89L129.43 170.13L130.73 170.27L131.4 170.3L131.4 134.65L130.73 134.68L129.43 134.82L129.43 134.82L128.15 135.06Z" id="aIZTh55gH"></path><path d="M259.64 186.69L259.64 187.42L259.64 187.42L259.64 187.94L259.64 187.22L259.64 187.22L259.64 186.69L259.64 186.69Z" id="cu07NHcvq"></path><path d="M241.69 34.68L186.31 131.15L241.69 131.15L202.13 200.82L352.46 104.35L273.34 104.35L328.72 34.68L241.69 34.68Z" id="f6JFVrN2eG"></path></defs><g><g><g><use xlink:href="#ewZ6IQGLo" opacity="1" fill="#000000" fill-opacity="1"></use><g><use xlink:href="#ewZ6IQGLo" opacity="1" fill-opacity="0" stroke="#000000" stroke-width="1" stroke-opacity="0"></use></g></g><g><g><use xlink:href="#a1kqplmTVE" opacity="1" fill-opacity="0" stroke="#000000" stroke-width="10" stroke-opacity="1"></use></g></g><g><use xlink:href="#e3rE0iBKj9" opacity="1" fill="#000000" fill-opacity="1"></use></g><g><use xlink:href="#d4L2TECCV" opacity="1" fill="#060606" fill-opacity="1"></use></g><g><use xlink:href="#aIZTh55gH" opacity="1" fill="#0e0e0e" fill-opacity="1"></use><g><use xlink:href="#aIZTh55gH" opacity="1" fill-opacity="0" stroke="#000000" stroke-width="3" stroke-opacity="1"></use></g></g><g><use xlink:href="#cu07NHcvq" opacity="1" fill="#171717" fill-opacity="1"></use></g><g><use xlink:href="#f6JFVrN2eG" opacity="1" fill="#000000" fill-opacity="1"></use></g></g></g></svg>