<?xml version="1.0" standalone="no"?>
<!DOCTYPE svg PUBLIC "-//W3C//DTD SVG 20010904//EN"
 "http://www.w3.org/TR/2001/REC-SVG-20010904/DTD/svg10.dtd">
<svg version="1.0" xmlns="http://www.w3.org/2000/svg"
 width="300.000000pt" height="297.000000pt" viewBox="0 0 300.000000 297.000000"
 preserveAspectRatio="xMidYMid meet">
<metadata>
Created by potrace 1.10, written by Peter Selinger 2001-2011
</metadata>
<g transform="translate(0.000000,297.000000) scale(0.100000,-0.100000)"
fill="#000000" stroke="none">
<path d="M1415 2873 c-510 -19 -950 -128 -1042 -259 -164 -233 -255 -892 -198
-1439 31 -302 80 -513 152 -662 51 -105 114 -155 258 -208 28 -11 60 -29 72
-42 19 -20 32 -23 90 -23 37 0 106 -7 153 -15 108 -19 341 -45 401 -45 33 0
65 -9 104 -30 75 -39 139 -41 194 -4 33 21 57 27 148 35 158 13 288 29 373 45
41 8 108 14 148 14 63 0 76 3 95 23 12 13 45 31 72 41 83 31 164 77 195 113
92 104 163 344 207 693 27 220 25 640 -5 858 -37 275 -74 426 -138 560 -45 94
-89 136 -192 185 -214 100 -715 174 -1087 160z m1081 -198 c43 -18 97 -55 90
-62 -3 -3 -27 8 -53 24 -26 16 -59 35 -73 41 -38 16 -4 14 36 -3z m-606 -210
c184 -28 279 -73 387 -181 87 -87 136 -182 164 -317 41 -198 41 -679 0 -882
-29 -143 -75 -231 -170 -326 -86 -86 -160 -127 -282 -158 -209 -53 -714 -55
-944 -5 -157 35 -298 131 -379 257 -92 144 -118 287 -118 667 -1 432 37 596
172 743 129 141 265 196 535 217 152 12 520 3 635 -15z"/>
<path d="M1145 2389 c-290 -42 -449 -199 -496 -487 -18 -114 -27 -375 -18
-545 16 -291 59 -429 171 -541 129 -128 257 -164 618 -173 463 -11 653 30 795
172 132 132 175 303 175 703 0 406 -42 582 -169 710 -101 101 -235 154 -423
168 -74 6 -88 4 -88 -8 0 -8 -10 -24 -23 -36 -22 -21 -33 -22 -180 -22 -144 0
-159 2 -177 20 -11 11 -20 27 -20 35 0 17 -63 19 -165 4z"/>
<path d="M1410 2365 c0 -24 1 -24 19 -8 21 18 19 33 -5 33 -8 0 -14 -10 -14
-25z m27 8 c-4 -3 -10 -3 -14 0 -3 4 0 7 7 7 7 0 10 -3 7 -7z"/>
<path d="M1460 2365 c0 -19 5 -25 23 -24 12 0 16 3 10 6 -7 2 -13 13 -13 24 0
10 -4 19 -10 19 -5 0 -10 -11 -10 -25z"/>
<path d="M1514 2365 c1 -11 9 -21 19 -23 13 -3 17 3 16 25 -1 23 -2 24 -6 6
-5 -27 -20 -30 -26 -5 -3 13 -4 12 -3 -3z"/>
<path d="M1573 2365 c0 -14 5 -25 13 -25 20 0 27 19 9 26 -13 6 -14 8 -3 15
10 7 9 9 -3 9 -11 0 -16 -9 -16 -25z m24 -12 c-4 -3 -10 -3 -14 0 -3 4 0 7 7
7 7 0 10 -3 7 -7z"/>
</g>
</svg>
