<?xml version="1.0" encoding="UTF-8" standalone="no"?>
<!DOCTYPE svg PUBLIC "-//W3C//DTD SVG 1.1//EN" "http://www.w3.org/Graphics/SVG/1.1/DTD/svg11.dtd">
<svg version="1.1" xmlns="http://www.w3.org/2000/svg" xmlns:xlink="http://www.w3.org/1999/xlink" preserveAspectRatio="xMidYMid meet" viewBox="0 0 535.5 535.5" width="535.5" height="535.5"><defs><path d="M419.27 70.78C419.27 163.44 419.27 373.47 419.27 466.12C419.27 503.65 388.86 534.06 351.34 534.06C299.96 534.06 213.77 534.06 162.4 534.06C124.87 534.06 94.46 503.65 94.46 466.12C94.46 373.47 94.46 163.44 94.46 70.78C94.46 33.26 124.87 2.85 162.4 2.85C213.77 2.85 299.96 2.85 351.34 2.85C388.86 2.85 419.27 33.26 419.27 70.78Z" id="c2VhXOkP5N"></path><path d="M256.87 488.94C197.72 488.94 149.71 440.94 149.71 381.8C149.71 322.67 197.72 274.66 256.87 274.66C316 274.66 364.01 322.67 364.01 381.8C364.01 440.94 316 488.94 256.87 488.94Z" id="b9h0CNan0"></path><path d="M256.87 458.5C218.27 458.5 186.93 427.17 186.93 388.57C186.93 349.97 218.27 318.65 256.87 318.65C295.45 318.65 326.79 349.97 326.79 388.57C326.79 427.17 295.45 458.5 256.87 458.5Z" id="gALq3DA4S"></path><path d="M329.89 347.81L259.97 295.94L190.04 347.81L329.89 347.81Z" id="c2E5QP6iHh"></path><path d="M221.9 381.8C216.29 381.8 211.75 377.26 211.75 371.65C211.75 366.06 216.29 361.5 221.9 361.5C227.5 361.5 232.05 366.06 232.05 371.65C232.05 377.26 227.5 381.8 221.9 381.8Z" id="a17rGTBKj"></path><path d="M290.35 381.8C284.76 381.8 280.2 377.26 280.2 371.65C280.2 366.06 284.76 361.5 290.35 361.5C295.96 361.5 300.5 366.06 300.5 371.65C300.5 377.26 295.96 381.8 290.35 381.8Z" id="ejhA3in9Q"></path><path d="M256.87 402.11C251.26 402.11 246.72 397.56 246.72 391.95C246.72 386.34 251.26 381.8 256.87 381.8C262.46 381.8 267 386.34 267 391.95C267 397.56 262.46 402.11 256.87 402.11Z" id="ij5dXJXBm"></path><path d="M221.9 417.56C216.29 417.56 211.75 413.01 211.75 407.41C211.75 401.8 216.29 397.25 221.9 397.25C227.5 397.25 232.05 401.8 232.05 407.41C232.05 413.01 227.5 417.56 221.9 417.56Z" id="e1Uv32k1Ti"></path><path d="M256.87 437.86C251.26 437.86 246.72 433.3 246.72 427.71C246.72 422.1 251.26 417.56 256.87 417.56C262.46 417.56 267 422.1 267 427.71C267 433.3 262.46 437.86 256.87 437.86Z" id="d6Ixb7BeX"></path><path d="M290.35 417.56C284.76 417.56 280.2 413.01 280.2 407.41C280.2 401.8 284.76 397.25 290.35 397.25C295.96 397.25 300.5 401.8 300.5 407.41C300.5 413.01 295.96 417.56 290.35 417.56Z" id="b38kWL4u4"></path><path d="M274.18 106.64L311.94 144.39L290.79 165.53L253.04 127.78L215.29 165.53L194.15 144.39L231.9 106.64L194.15 68.89L215.29 47.75L253.04 85.5L290.79 47.75L311.94 68.89L274.18 106.64Z" id="a163Ns4qUS"></path></defs><g><g><g><use xlink:href="#c2VhXOkP5N" opacity="1" fill="#000000" fill-opacity="1"></use><g><use xlink:href="#c2VhXOkP5N" opacity="1" fill-opacity="0" stroke="#000000" stroke-width="1" stroke-opacity="0"></use></g></g><g><use xlink:href="#b9h0CNan0" opacity="1" fill="#ffffff" fill-opacity="1"></use><g><use xlink:href="#b9h0CNan0" opacity="1" fill-opacity="0" stroke="#000000" stroke-width="1" stroke-opacity="0"></use></g></g><g><use xlink:href="#gALq3DA4S" opacity="1" fill="#000000" fill-opacity="1"></use><g><use xlink:href="#gALq3DA4S" opacity="1" fill-opacity="0" stroke="#000000" stroke-width="1" stroke-opacity="0"></use></g></g><g><use xlink:href="#c2E5QP6iHh" opacity="1" fill="#ffffff" fill-opacity="1"></use><g><use xlink:href="#c2E5QP6iHh" opacity="1" fill-opacity="0" stroke="#ffffff" stroke-width="0" stroke-opacity="1"></use></g></g><g><use xlink:href="#a17rGTBKj" opacity="1" fill="#ffffff" fill-opacity="1"></use><g><use xlink:href="#a17rGTBKj" opacity="1" fill-opacity="0" stroke="#000000" stroke-width="1" stroke-opacity="0"></use></g></g><g><use xlink:href="#ejhA3in9Q" opacity="1" fill="#ffffff" fill-opacity="1"></use><g><use xlink:href="#ejhA3in9Q" opacity="1" fill-opacity="0" stroke="#000000" stroke-width="1" stroke-opacity="0"></use></g></g><g><use xlink:href="#ij5dXJXBm" opacity="1" fill="#ffffff" fill-opacity="1"></use><g><use xlink:href="#ij5dXJXBm" opacity="1" fill-opacity="0" stroke="#000000" stroke-width="1" stroke-opacity="0"></use></g></g><g><use xlink:href="#e1Uv32k1Ti" opacity="1" fill="#ffffff" fill-opacity="1"></use><g><use xlink:href="#e1Uv32k1Ti" opacity="1" fill-opacity="0" stroke="#000000" stroke-width="1" stroke-opacity="0"></use></g></g><g><use xlink:href="#d6Ixb7BeX" opacity="1" fill="#ffffff" fill-opacity="1"></use><g><use xlink:href="#d6Ixb7BeX" opacity="1" fill-opacity="0" stroke="#000000" stroke-width="1" stroke-opacity="0"></use></g></g><g><use xlink:href="#b38kWL4u4" opacity="1" fill="#ffffff" fill-opacity="1"></use><g><use xlink:href="#b38kWL4u4" opacity="1" fill-opacity="0" stroke="#000000" stroke-width="1" stroke-opacity="0"></use></g></g><g><use xlink:href="#a163Ns4qUS" opacity="1" fill="#ffffff" fill-opacity="0.98"></use></g></g></g></svg>