<?xml version="1.0" encoding="UTF-8" standalone="no"?>
<!DOCTYPE svg PUBLIC "-//W3C//DTD SVG 1.1//EN" "http://www.w3.org/Graphics/SVG/1.1/DTD/svg11.dtd">
<svg version="1.1" xmlns="http://www.w3.org/2000/svg" xmlns:xlink="http://www.w3.org/1999/xlink" preserveAspectRatio="xMidYMid meet" viewBox="0 0 535.5 535.5" width="535.5" height="535.5"><defs><path d="M419.27 70.78C419.27 163.44 419.27 373.47 419.27 466.12C419.27 503.65 388.86 534.06 351.34 534.06C299.96 534.06 213.77 534.06 162.4 534.06C124.87 534.06 94.46 503.65 94.46 466.12C94.46 373.47 94.46 163.44 94.46 70.78C94.46 33.26 124.87 2.85 162.4 2.85C213.77 2.85 299.96 2.85 351.34 2.85C388.86 2.85 419.27 33.26 419.27 70.78Z" id="bQ7Pbr3Ia"></path><path d="M256.87 488.94C197.72 488.94 149.71 440.94 149.71 381.8C149.71 322.67 197.72 274.66 256.87 274.66C316 274.66 364.01 322.67 364.01 381.8C364.01 440.94 316 488.94 256.87 488.94Z" id="b9h0CNan0"></path><path d="M256.87 458.5C218.27 458.5 186.93 427.17 186.93 388.57C186.93 349.97 218.27 318.65 256.87 318.65C295.45 318.65 326.79 349.97 326.79 388.57C326.79 427.17 295.45 458.5 256.87 458.5Z" id="gALq3DA4S"></path><path d="M329.89 347.81L259.97 295.94L190.04 347.81L329.89 347.81Z" id="c2E5QP6iHh"></path><path d="M221.9 381.8C216.29 381.8 211.75 377.26 211.75 371.65C211.75 366.06 216.29 361.5 221.9 361.5C227.5 361.5 232.05 366.06 232.05 371.65C232.05 377.26 227.5 381.8 221.9 381.8Z" id="a17rGTBKj"></path><path d="M290.35 381.8C284.76 381.8 280.2 377.26 280.2 371.65C280.2 366.06 284.76 361.5 290.35 361.5C295.96 361.5 300.5 366.06 300.5 371.65C300.5 377.26 295.96 381.8 290.35 381.8Z" id="ejhA3in9Q"></path><path d="M256.87 402.11C251.26 402.11 246.72 397.56 246.72 391.95C246.72 386.34 251.26 381.8 256.87 381.8C262.46 381.8 267 386.34 267 391.95C267 397.56 262.46 402.11 256.87 402.11Z" id="ij5dXJXBm"></path><path d="M221.9 417.56C216.29 417.56 211.75 413.01 211.75 407.41C211.75 401.8 216.29 397.25 221.9 397.25C227.5 397.25 232.05 401.8 232.05 407.41C232.05 413.01 227.5 417.56 221.9 417.56Z" id="e1Uv32k1Ti"></path><path d="M256.87 437.86C251.26 437.86 246.72 433.3 246.72 427.71C246.72 422.1 251.26 417.56 256.87 417.56C262.46 417.56 267 422.1 267 427.71C267 433.3 262.46 437.86 256.87 437.86Z" id="d6Ixb7BeX"></path><path d="M290.35 417.56C284.76 417.56 280.2 413.01 280.2 407.41C280.2 401.8 284.76 397.25 290.35 397.25C295.96 397.25 300.5 401.8 300.5 407.41C300.5 413.01 295.96 417.56 290.35 417.56Z" id="b38kWL4u4"></path><path d="M264.24 103.83L264.31 103.84L264.38 103.86L264.44 103.87L264.5 103.89L264.56 103.91L264.62 103.94L264.68 103.97L264.73 104L264.79 104.04L264.84 104.07L264.89 104.11L264.94 104.16L264.99 104.2L265.03 104.25L265.08 104.31L265.12 104.36L265.16 104.42L265.2 104.47L265.24 104.54L265.28 104.6L265.32 104.66L265.36 104.73L265.39 104.8L265.43 104.87L265.46 104.95L265.5 105.02L265.53 105.1L265.56 105.18L265.6 105.26L265.63 105.34L265.66 105.42L265.69 105.51L265.72 105.59L265.75 105.68L265.78 105.77L265.81 105.86L265.84 105.95L265.87 106.04L267.4 111.77L267.88 111.92L268.94 112.3L269.98 112.72L271 113.17L272 113.66L272.08 113.71L277.24 110.73L277.32 110.68L277.41 110.64L277.49 110.6L277.58 110.56L277.66 110.52L277.74 110.48L277.82 110.44L277.9 110.4L277.98 110.37L278.06 110.33L278.14 110.3L278.22 110.27L278.3 110.24L278.37 110.21L278.45 110.19L278.52 110.16L278.6 110.14L278.67 110.12L278.74 110.11L278.81 110.09L278.88 110.08L278.95 110.07L279.02 110.06L279.09 110.06L279.16 110.05L279.23 110.06L279.29 110.06L279.35 110.07L279.42 110.08L279.48 110.09L279.54 110.1L279.6 110.12L279.66 110.15L279.72 110.17L279.78 110.2L279.84 110.24L279.89 110.28L279.95 110.32L280 110.36L280.05 110.41L287.55 117.91L287.6 117.97L287.65 118.02L287.69 118.08L287.73 118.13L287.76 118.19L287.8 118.25L287.82 118.31L287.85 118.37L287.87 118.43L287.89 118.5L287.9 118.56L287.91 118.63L287.92 118.69L287.93 118.76L287.93 118.83L287.93 118.9L287.93 118.97L287.92 119.04L287.91 119.11L287.9 119.18L287.89 119.25L287.87 119.33L287.86 119.4L287.83 119.48L287.81 119.55L287.79 119.63L287.76 119.7L287.73 119.78L287.7 119.86L287.67 119.94L287.63 120.01L287.59 120.09L287.55 120.17L287.51 120.25L287.47 120.33L287.43 120.41L287.38 120.49L287.34 120.57L287.29 120.65L287.24 120.73L284.26 125.87L284.32 125.99L284.82 126.98L285.27 128.01L285.69 129.05L286.06 130.11L286.21 130.59L291.95 132.12L292.04 132.14L292.13 132.16L292.22 132.18L292.31 132.21L292.39 132.23L292.48 132.26L292.56 132.29L292.65 132.32L292.73 132.34L292.81 132.38L292.89 132.41L292.96 132.44L293.04 132.47L293.11 132.51L293.18 132.54L293.25 132.58L293.32 132.62L293.39 132.66L293.45 132.7L293.51 132.74L293.57 132.78L293.63 132.83L293.68 132.87L293.73 132.92L293.78 132.97L293.83 133.02L293.87 133.07L293.91 133.13L293.95 133.18L293.98 133.24L294.02 133.29L294.05 133.35L294.07 133.41L294.09 133.48L294.11 133.54L294.13 133.61L294.14 133.67L294.15 133.74L294.16 133.81L294.16 133.88L294.16 144.49L294.16 144.57L294.15 144.64L294.14 144.7L294.13 144.77L294.11 144.83L294.09 144.9L294.07 144.96L294.05 145.01L294.02 145.07L293.98 145.13L293.95 145.18L293.91 145.23L293.87 145.28L293.83 145.33L293.78 145.38L293.73 145.42L293.68 145.47L293.63 145.51L293.57 145.55L293.51 145.59L293.45 145.63L293.39 145.67L293.32 145.71L293.25 145.75L293.18 145.79L293.11 145.82L293.04 145.86L292.96 145.89L292.89 145.92L292.81 145.96L292.73 145.99L292.65 146.02L292.56 146.05L292.48 146.08L292.39 146.11L292.31 146.14L292.22 146.17L292.13 146.2L292.04 146.23L291.95 146.26L286.21 147.79L286.06 148.27L285.69 149.33L285.27 150.37L284.82 151.39L284.32 152.39L284.27 152.49L287.24 157.63L287.29 157.71L287.34 157.79L287.38 157.87L287.43 157.95L287.47 158.03L287.51 158.11L287.55 158.19L287.59 158.26L287.63 158.34L287.67 158.42L287.7 158.5L287.73 158.58L287.76 158.65L287.79 158.73L287.81 158.81L287.83 158.88L287.86 158.96L287.87 159.03L287.89 159.1L287.9 159.18L287.91 159.25L287.92 159.32L287.93 159.39L287.93 159.46L287.93 159.53L287.93 159.6L287.92 159.67L287.91 159.73L287.9 159.8L287.89 159.86L287.87 159.93L287.85 159.99L287.82 160.05L287.8 160.11L287.76 160.17L287.73 160.23L287.69 160.28L287.65 160.34L287.6 160.39L287.55 160.44L280.05 167.94L280 167.99L279.95 168.04L279.89 168.08L279.84 168.12L279.78 168.15L279.72 168.18L279.66 168.21L279.6 168.23L279.54 168.25L279.48 168.27L279.42 168.28L279.35 168.29L279.29 168.3L279.23 168.3L279.16 168.3L279.09 168.3L279.02 168.3L278.95 168.29L278.88 168.28L278.81 168.27L278.74 168.25L278.67 168.23L278.6 168.21L278.52 168.19L278.45 168.17L278.37 168.14L278.3 168.12L278.22 168.09L278.14 168.06L278.06 168.02L277.98 167.99L277.9 167.95L277.82 167.92L277.74 167.88L277.66 167.84L277.58 167.8L277.49 167.76L277.41 167.72L277.32 167.68L277.24 167.63L272.1 164.66L272 164.71L271 165.21L269.98 165.66L268.94 166.08L267.88 166.46L267.4 166.6L265.87 172.34L265.84 172.43L265.81 172.52L265.78 172.61L265.75 172.7L265.72 172.79L265.69 172.87L265.66 172.96L265.63 173.04L265.6 173.12L265.56 173.2L265.53 173.28L265.5 173.36L265.46 173.43L265.43 173.5L265.39 173.58L265.36 173.65L265.32 173.71L265.28 173.78L265.24 173.84L265.2 173.9L265.16 173.96L265.12 174.02L265.08 174.07L265.03 174.12L264.99 174.17L264.94 174.22L264.89 174.26L264.84 174.3L264.79 174.34L264.73 174.38L264.68 174.41L264.62 174.44L264.56 174.46L264.5 174.49L264.44 174.51L264.38 174.52L264.31 174.53L264.24 174.54L264.17 174.55L264.1 174.55L253.49 174.55L253.42 174.55L253.35 174.54L253.28 174.53L253.21 174.52L253.15 174.51L253.08 174.49L253.02 174.46L252.96 174.44L252.9 174.41L252.84 174.38L252.79 174.34L252.73 174.3L252.68 174.26L252.63 174.22L252.58 174.17L252.53 174.12L252.48 174.07L252.44 174.02L252.39 173.96L252.35 173.9L252.31 173.84L252.27 173.78L252.23 173.71L252.19 173.65L252.15 173.58L252.12 173.5L252.08 173.43L252.05 173.36L252.01 173.28L251.98 173.2L251.95 173.12L251.92 173.04L251.9 172.96L251.87 172.87L251.84 172.79L251.82 172.7L251.79 172.61L251.77 172.52L251.75 172.43L251.72 172.34L250.2 166.6L249.72 166.46L248.65 166.08L247.61 165.66L246.59 165.21L245.59 164.71L245.47 164.65L240.36 167.61L240.28 167.66L240.2 167.71L240.12 167.75L240.04 167.8L239.96 167.84L239.88 167.88L239.8 167.93L239.72 167.96L239.64 168L239.57 168.04L239.49 168.07L239.41 168.1L239.33 168.13L239.26 168.16L239.18 168.18L239.11 168.21L239.03 168.23L238.96 168.24L238.88 168.26L238.81 168.27L238.74 168.29L238.67 168.29L238.6 168.3L238.53 168.3L238.46 168.3L238.39 168.3L238.32 168.29L238.25 168.29L238.19 168.27L238.12 168.26L238.06 168.24L238 168.22L237.94 168.19L237.88 168.17L237.82 168.14L237.76 168.1L237.7 168.06L237.65 168.02L237.6 167.97L237.54 167.92L230.04 160.42L229.99 160.37L229.95 160.32L229.9 160.26L229.87 160.21L229.83 160.15L229.8 160.09L229.78 160.03L229.75 159.97L229.73 159.91L229.72 159.85L229.7 159.79L229.69 159.73L229.69 159.66L229.68 159.6L229.68 159.53L229.69 159.46L229.69 159.39L229.7 159.33L229.71 159.26L229.72 159.19L229.74 159.11L229.75 159.04L229.77 158.97L229.79 158.89L229.82 158.82L229.84 158.74L229.87 158.67L229.9 158.59L229.93 158.51L229.96 158.43L230 158.35L230.03 158.27L230.07 158.19L230.11 158.11L230.15 158.03L230.19 157.95L230.23 157.86L230.27 157.78L230.31 157.69L230.35 157.61L233.32 152.48L233.27 152.39L232.78 151.39L232.32 150.37L231.91 149.33L231.53 148.27L231.38 147.79L225.65 146.26L225.55 146.23L225.46 146.2L225.37 146.17L225.29 146.14L225.2 146.11L225.11 146.08L225.03 146.05L224.95 146.02L224.87 145.99L224.79 145.96L224.71 145.92L224.63 145.89L224.55 145.86L224.48 145.82L224.41 145.79L224.34 145.75L224.27 145.71L224.21 145.67L224.14 145.63L224.08 145.59L224.02 145.55L223.97 145.51L223.91 145.47L223.86 145.42L223.81 145.38L223.77 145.33L223.72 145.28L223.68 145.23L223.64 145.18L223.61 145.13L223.58 145.07L223.55 145.01L223.52 144.96L223.5 144.9L223.48 144.83L223.46 144.77L223.45 144.7L223.44 144.64L223.44 144.57L223.44 144.49L223.44 133.88L223.44 133.81L223.44 133.74L223.45 133.67L223.46 133.61L223.48 133.54L223.5 133.48L223.52 133.41L223.55 133.35L223.58 133.29L223.61 133.24L223.64 133.18L223.68 133.13L223.72 133.07L223.77 133.02L223.81 132.97L223.86 132.92L223.91 132.87L223.97 132.83L224.02 132.78L224.08 132.74L224.14 132.7L224.21 132.66L224.27 132.62L224.34 132.58L224.41 132.54L224.48 132.51L224.55 132.47L224.63 132.44L224.71 132.41L224.79 132.38L224.87 132.34L224.95 132.32L225.03 132.29L225.11 132.26L225.2 132.23L225.29 132.21L225.37 132.18L225.46 132.16L225.55 132.14L225.65 132.12L231.38 130.59L231.53 130.11L231.91 129.05L232.32 128.01L232.78 126.98L233.27 125.99L233.33 125.88L230.35 120.75L230.31 120.66L230.27 120.58L230.23 120.49L230.19 120.41L230.15 120.33L230.11 120.25L230.07 120.16L230.03 120.08L230 120L229.96 119.92L229.93 119.85L229.9 119.77L229.87 119.69L229.84 119.61L229.82 119.54L229.79 119.46L229.77 119.39L229.75 119.32L229.74 119.24L229.72 119.17L229.71 119.1L229.7 119.03L229.69 118.96L229.69 118.89L229.68 118.83L229.68 118.76L229.69 118.7L229.69 118.63L229.7 118.57L229.72 118.51L229.73 118.44L229.75 118.38L229.78 118.32L229.8 118.26L229.83 118.21L229.87 118.15L229.9 118.1L229.95 118.04L229.99 117.99L230.04 117.94L237.54 110.43L237.6 110.38L237.65 110.34L237.7 110.3L237.76 110.26L237.82 110.22L237.88 110.19L237.94 110.16L238 110.14L238.06 110.12L238.12 110.1L238.19 110.08L238.25 110.07L238.32 110.06L238.39 110.06L238.46 110.05L238.53 110.05L238.6 110.06L238.67 110.06L238.74 110.07L238.81 110.08L238.88 110.1L238.96 110.11L239.03 110.13L239.11 110.15L239.18 110.17L239.26 110.2L239.33 110.23L239.41 110.26L239.49 110.29L239.57 110.32L239.64 110.36L239.72 110.39L239.8 110.43L239.88 110.47L239.96 110.51L240.04 110.56L240.12 110.6L240.2 110.65L240.28 110.7L240.36 110.75L245.49 113.72L245.59 113.66L246.59 113.17L247.61 112.72L248.65 112.3L249.72 111.92L250.2 111.77L251.72 106.04L251.75 105.95L251.77 105.86L251.79 105.77L251.82 105.68L251.84 105.59L251.87 105.51L251.9 105.42L251.92 105.34L251.95 105.26L251.98 105.18L252.01 105.1L252.05 105.02L252.08 104.95L252.12 104.87L252.15 104.8L252.19 104.73L252.23 104.66L252.27 104.6L252.31 104.54L252.35 104.47L252.39 104.42L252.44 104.36L252.48 104.31L252.53 104.25L252.58 104.2L252.63 104.16L252.68 104.11L252.73 104.07L252.79 104.04L252.84 104L252.9 103.97L252.96 103.94L253.02 103.91L253.08 103.89L253.15 103.87L253.21 103.86L253.28 103.84L253.35 103.83L253.42 103.83L253.49 103.83L264.1 103.83L264.17 103.83L264.24 103.83ZM257.53 123.77L256.9 123.83L256.29 123.92L255.68 124.03L255.08 124.17L254.49 124.33L253.91 124.51L253.34 124.71L252.77 124.93L252.23 125.18L251.69 125.45L251.16 125.73L250.65 126.04L250.15 126.36L249.66 126.7L249.19 127.06L248.73 127.44L248.29 127.84L247.86 128.25L247.45 128.68L247.05 129.12L246.67 129.58L246.31 130.05L245.97 130.54L245.64 131.04L245.34 131.55L245.05 132.08L244.79 132.62L244.54 133.17L244.32 133.73L244.11 134.3L243.93 134.88L243.78 135.47L243.64 136.07L243.53 136.68L243.44 137.3L243.38 137.92L243.34 138.55L243.33 139.19L243.34 139.83L243.38 140.46L243.44 141.08L243.53 141.7L243.64 142.31L243.78 142.91L243.93 143.5L244.11 144.08L244.32 144.65L244.54 145.21L244.79 145.76L245.05 146.3L245.34 146.82L245.64 147.34L245.97 147.84L246.31 148.33L246.67 148.8L247.05 149.26L247.45 149.7L247.86 150.13L248.29 150.54L248.73 150.94L249.19 151.31L249.66 151.67L250.15 152.02L250.65 152.34L251.16 152.65L251.69 152.93L252.23 153.2L252.77 153.44L253.34 153.67L253.91 153.87L254.49 154.05L255.08 154.21L255.68 154.35L256.29 154.46L256.9 154.55L257.53 154.61L258.16 154.65L258.8 154.66L259.43 154.65L260.07 154.61L260.69 154.55L261.31 154.46L261.91 154.35L262.51 154.21L263.11 154.05L263.69 153.87L264.26 153.67L264.82 153.44L265.37 153.2L265.91 152.93L266.43 152.65L266.95 152.34L267.45 152.02L267.93 151.67L268.41 151.31L268.87 150.94L269.31 150.54L269.74 150.13L270.15 149.7L270.54 149.26L270.92 148.8L271.28 148.33L271.63 147.84L271.95 147.34L272.26 146.82L272.54 146.3L272.81 145.76L273.05 145.21L273.28 144.65L273.48 144.08L273.66 143.5L273.82 142.91L273.95 142.31L274.07 141.7L274.15 141.08L274.22 140.46L274.25 139.83L274.27 139.19L274.25 138.55L274.22 137.92L274.15 137.3L274.07 136.68L273.95 136.07L273.82 135.47L273.66 134.88L273.48 134.3L273.28 133.73L273.05 133.17L272.81 132.62L272.54 132.08L272.26 131.55L271.95 131.04L271.63 130.54L271.28 130.05L270.92 129.58L270.54 129.12L270.15 128.68L269.74 128.25L269.31 127.84L268.87 127.44L268.41 127.06L267.93 126.7L267.45 126.36L266.95 126.04L266.43 125.73L265.91 125.45L265.37 125.18L264.82 124.93L264.26 124.71L263.69 124.51L263.11 124.33L262.51 124.17L261.91 124.03L261.31 123.92L260.69 123.83L260.07 123.77L259.43 123.73L258.8 123.72L258.16 123.73L257.53 123.77Z" id="d2PtSzdzps"></path><path d="M319.67 69.06L319.74 69.07L319.8 69.09L319.87 69.1L319.93 69.12L319.99 69.14L320.05 69.17L320.1 69.2L320.16 69.23L320.21 69.27L320.26 69.3L320.31 69.34L320.36 69.39L320.41 69.43L320.46 69.48L320.5 69.54L320.55 69.59L320.59 69.65L320.63 69.7L320.67 69.77L320.71 69.83L320.75 69.89L320.78 69.96L320.82 70.03L320.85 70.1L320.89 70.18L320.92 70.25L320.96 70.33L320.99 70.41L321.02 70.49L321.05 70.57L321.08 70.65L321.12 70.74L321.15 70.82L321.18 70.91L321.21 71L321.24 71.09L321.27 71.18L321.3 71.27L322.82 77L323.3 77.15L324.37 77.53L325.41 77.95L326.43 78.4L327.43 78.89L327.51 78.94L332.66 75.96L332.75 75.91L332.83 75.87L332.92 75.83L333 75.79L333.08 75.75L333.17 75.71L333.25 75.67L333.33 75.63L333.41 75.6L333.49 75.56L333.57 75.53L333.64 75.5L333.72 75.47L333.8 75.44L333.87 75.42L333.95 75.39L334.02 75.37L334.1 75.35L334.17 75.34L334.24 75.32L334.31 75.31L334.38 75.3L334.45 75.29L334.52 75.29L334.58 75.28L334.65 75.29L334.72 75.29L334.78 75.3L334.84 75.31L334.91 75.32L334.97 75.33L335.03 75.35L335.09 75.38L335.15 75.4L335.2 75.43L335.26 75.47L335.32 75.51L335.37 75.55L335.42 75.59L335.48 75.64L342.98 83.14L343.03 83.2L343.07 83.25L343.12 83.31L343.16 83.36L343.19 83.42L343.22 83.48L343.25 83.54L343.27 83.6L343.3 83.66L343.31 83.73L343.33 83.79L343.34 83.86L343.35 83.92L343.35 83.99L343.36 84.06L343.36 84.13L343.35 84.2L343.35 84.27L343.34 84.34L343.33 84.41L343.32 84.48L343.3 84.56L343.28 84.63L343.26 84.71L343.24 84.78L343.21 84.86L343.19 84.93L343.16 85.01L343.12 85.09L343.09 85.17L343.06 85.24L343.02 85.32L342.98 85.4L342.94 85.48L342.9 85.56L342.85 85.64L342.81 85.72L342.76 85.8L342.71 85.88L342.67 85.96L339.69 91.1L339.75 91.22L340.24 92.21L340.7 93.24L341.11 94.28L341.49 95.34L341.64 95.82L347.37 97.35L347.47 97.37L347.56 97.39L347.64 97.41L347.73 97.44L347.82 97.46L347.91 97.49L347.99 97.52L348.07 97.55L348.15 97.57L348.23 97.61L348.31 97.64L348.39 97.67L348.47 97.7L348.54 97.74L348.61 97.77L348.68 97.81L348.75 97.85L348.81 97.89L348.88 97.93L348.94 97.97L349 98.01L349.05 98.06L349.11 98.1L349.16 98.15L349.21 98.2L349.25 98.25L349.3 98.3L349.34 98.36L349.38 98.41L349.41 98.47L349.44 98.52L349.47 98.58L349.5 98.64L349.52 98.71L349.54 98.77L349.56 98.84L349.57 98.9L349.58 98.97L349.58 99.04L349.58 99.11L349.58 109.72L349.58 109.8L349.58 109.87L349.57 109.93L349.56 110L349.54 110.06L349.52 110.13L349.5 110.19L349.47 110.24L349.44 110.3L349.41 110.36L349.38 110.41L349.34 110.46L349.3 110.51L349.25 110.56L349.21 110.61L349.16 110.65L349.11 110.7L349.05 110.74L349 110.78L348.94 110.82L348.88 110.86L348.81 110.9L348.75 110.94L348.68 110.98L348.61 111.02L348.54 111.05L348.47 111.09L348.39 111.12L348.31 111.15L348.23 111.19L348.15 111.22L348.07 111.25L347.99 111.28L347.91 111.31L347.82 111.34L347.73 111.37L347.64 111.4L347.56 111.43L347.47 111.46L347.37 111.49L341.64 113.02L341.49 113.5L341.11 114.56L340.7 115.6L340.24 116.62L339.75 117.62L339.69 117.72L342.67 122.86L342.71 122.94L342.76 123.02L342.81 123.1L342.85 123.18L342.9 123.26L342.94 123.34L342.98 123.42L343.02 123.49L343.06 123.57L343.09 123.65L343.12 123.73L343.16 123.81L343.19 123.88L343.21 123.96L343.24 124.03L343.26 124.11L343.28 124.19L343.3 124.26L343.32 124.33L343.33 124.41L343.34 124.48L343.35 124.55L343.35 124.62L343.36 124.69L343.36 124.76L343.35 124.83L343.35 124.9L343.34 124.96L343.33 125.03L343.31 125.09L343.3 125.16L343.27 125.22L343.25 125.28L343.22 125.34L343.19 125.4L343.16 125.46L343.12 125.51L343.07 125.57L343.03 125.62L342.98 125.67L335.48 133.17L335.42 133.22L335.37 133.27L335.32 133.31L335.26 133.35L335.2 133.38L335.15 133.41L335.09 133.44L335.03 133.46L334.97 133.48L334.91 133.5L334.84 133.51L334.78 133.52L334.72 133.53L334.65 133.53L334.58 133.53L334.52 133.53L334.45 133.53L334.38 133.52L334.31 133.51L334.24 133.5L334.17 133.48L334.1 133.46L334.02 133.44L333.95 133.42L333.87 133.4L333.8 133.37L333.72 133.35L333.64 133.32L333.57 133.29L333.49 133.25L333.41 133.22L333.33 133.18L333.25 133.15L333.17 133.11L333.08 133.07L333 133.03L332.92 132.99L332.83 132.95L332.75 132.91L332.66 132.86L327.53 129.89L327.43 129.94L326.43 130.44L325.41 130.89L324.37 131.31L323.3 131.69L322.82 131.83L321.3 137.57L321.27 137.66L321.24 137.75L321.21 137.84L321.18 137.93L321.15 138.02L321.12 138.1L321.08 138.19L321.05 138.27L321.02 138.35L320.99 138.43L320.96 138.51L320.92 138.59L320.89 138.66L320.85 138.73L320.82 138.81L320.78 138.88L320.75 138.94L320.71 139.01L320.67 139.07L320.63 139.13L320.59 139.19L320.55 139.25L320.5 139.3L320.46 139.35L320.41 139.4L320.36 139.45L320.31 139.49L320.26 139.53L320.21 139.57L320.16 139.61L320.1 139.64L320.05 139.67L319.99 139.69L319.93 139.72L319.87 139.74L319.8 139.75L319.74 139.76L319.67 139.77L319.6 139.78L319.53 139.78L308.92 139.78L308.85 139.78L308.78 139.77L308.71 139.76L308.64 139.75L308.57 139.74L308.51 139.72L308.45 139.69L308.39 139.67L308.33 139.64L308.27 139.61L308.21 139.57L308.16 139.53L308.11 139.49L308.06 139.45L308 139.4L307.96 139.35L307.91 139.3L307.86 139.25L307.82 139.19L307.77 139.13L307.73 139.07L307.69 139.01L307.65 138.94L307.61 138.88L307.58 138.81L307.54 138.73L307.51 138.66L307.47 138.59L307.44 138.51L307.41 138.43L307.38 138.35L307.35 138.27L307.32 138.19L307.29 138.1L307.27 138.02L307.24 137.93L307.22 137.84L307.19 137.75L307.17 137.66L307.15 137.57L305.62 131.83L305.14 131.69L304.08 131.31L303.04 130.89L302.02 130.44L301.02 129.94L300.9 129.88L295.78 132.84L295.7 132.89L295.62 132.94L295.54 132.98L295.46 133.03L295.38 133.07L295.31 133.11L295.23 133.16L295.15 133.19L295.07 133.23L294.99 133.27L294.91 133.3L294.84 133.33L294.76 133.36L294.68 133.39L294.61 133.41L294.53 133.44L294.46 133.46L294.38 133.47L294.31 133.49L294.24 133.5L294.16 133.52L294.09 133.52L294.02 133.53L293.95 133.53L293.88 133.53L293.81 133.53L293.75 133.52L293.68 133.52L293.61 133.5L293.55 133.49L293.49 133.47L293.42 133.45L293.36 133.42L293.3 133.4L293.24 133.37L293.19 133.33L293.13 133.29L293.08 133.25L293.02 133.2L292.97 133.15L285.47 125.65L285.42 125.6L285.37 125.55L285.33 125.49L285.29 125.44L285.26 125.38L285.23 125.32L285.2 125.26L285.18 125.2L285.16 125.14L285.14 125.08L285.13 125.02L285.12 124.96L285.11 124.89L285.11 124.83L285.11 124.76L285.11 124.69L285.12 124.62L285.12 124.56L285.13 124.49L285.15 124.42L285.16 124.34L285.18 124.27L285.2 124.2L285.22 124.12L285.24 124.05L285.27 123.97L285.3 123.9L285.33 123.82L285.36 123.74L285.39 123.66L285.42 123.58L285.46 123.5L285.49 123.42L285.53 123.34L285.57 123.26L285.61 123.18L285.65 123.09L285.69 123.01L285.74 122.92L285.78 122.84L288.75 117.71L288.7 117.62L288.2 116.62L287.75 115.6L287.33 114.56L286.96 113.5L286.81 113.02L281.07 111.49L280.98 111.46L280.89 111.43L280.8 111.4L280.71 111.37L280.63 111.34L280.54 111.31L280.46 111.28L280.37 111.25L280.29 111.22L280.21 111.19L280.13 111.15L280.06 111.12L279.98 111.09L279.91 111.05L279.84 111.02L279.77 110.98L279.7 110.94L279.63 110.9L279.57 110.86L279.51 110.82L279.45 110.78L279.39 110.74L279.34 110.7L279.29 110.65L279.24 110.61L279.19 110.56L279.15 110.51L279.11 110.46L279.07 110.41L279.03 110.36L279 110.3L278.97 110.24L278.95 110.19L278.93 110.13L278.91 110.06L278.89 110L278.88 109.93L278.87 109.87L278.86 109.8L278.86 109.72L278.86 99.11L278.86 99.04L278.87 98.97L278.88 98.9L278.89 98.84L278.91 98.77L278.93 98.71L278.95 98.64L278.97 98.58L279 98.52L279.03 98.47L279.07 98.41L279.11 98.36L279.15 98.3L279.19 98.25L279.24 98.2L279.29 98.15L279.34 98.1L279.39 98.06L279.45 98.01L279.51 97.97L279.57 97.93L279.63 97.89L279.7 97.85L279.77 97.81L279.84 97.77L279.91 97.74L279.98 97.7L280.06 97.67L280.13 97.64L280.21 97.61L280.29 97.57L280.37 97.55L280.46 97.52L280.54 97.49L280.63 97.46L280.71 97.44L280.8 97.41L280.89 97.39L280.98 97.37L281.07 97.35L286.81 95.82L286.96 95.34L287.33 94.28L287.75 93.24L288.2 92.21L288.7 91.22L288.75 91.11L285.78 85.98L285.74 85.89L285.69 85.81L285.65 85.72L285.61 85.64L285.57 85.56L285.53 85.48L285.49 85.39L285.46 85.31L285.42 85.23L285.39 85.15L285.36 85.07L285.33 85L285.3 84.92L285.27 84.84L285.24 84.77L285.22 84.69L285.2 84.62L285.18 84.55L285.16 84.47L285.15 84.4L285.13 84.33L285.12 84.26L285.12 84.19L285.11 84.12L285.11 84.06L285.11 83.99L285.11 83.93L285.12 83.86L285.13 83.8L285.14 83.74L285.16 83.67L285.18 83.61L285.2 83.55L285.23 83.49L285.26 83.44L285.29 83.38L285.33 83.33L285.37 83.27L285.42 83.22L285.47 83.17L292.97 75.66L293.02 75.61L293.08 75.57L293.13 75.53L293.19 75.49L293.24 75.45L293.3 75.42L293.36 75.39L293.42 75.37L293.49 75.35L293.55 75.33L293.61 75.31L293.68 75.3L293.75 75.29L293.81 75.29L293.88 75.28L293.95 75.28L294.02 75.29L294.09 75.29L294.16 75.3L294.24 75.31L294.31 75.33L294.38 75.34L294.46 75.36L294.53 75.38L294.61 75.4L294.68 75.43L294.76 75.46L294.84 75.49L294.91 75.52L294.99 75.55L295.07 75.59L295.15 75.62L295.23 75.66L295.31 75.7L295.38 75.74L295.46 75.79L295.54 75.83L295.62 75.88L295.7 75.93L295.78 75.98L300.92 78.95L301.02 78.89L302.02 78.4L303.04 77.95L304.08 77.53L305.14 77.15L305.62 77L307.15 71.27L307.17 71.18L307.19 71.09L307.22 71L307.24 70.91L307.27 70.82L307.29 70.74L307.32 70.65L307.35 70.57L307.38 70.49L307.41 70.41L307.44 70.33L307.47 70.25L307.51 70.18L307.54 70.1L307.58 70.03L307.61 69.96L307.65 69.89L307.69 69.83L307.73 69.77L307.77 69.7L307.82 69.65L307.86 69.59L307.91 69.54L307.96 69.48L308 69.43L308.06 69.39L308.11 69.34L308.16 69.3L308.21 69.27L308.27 69.23L308.33 69.2L308.39 69.17L308.45 69.14L308.51 69.12L308.57 69.1L308.64 69.09L308.71 69.07L308.78 69.06L308.85 69.06L308.92 69.06L319.53 69.06L319.6 69.06L319.67 69.06ZM312.95 89L312.33 89.06L311.71 89.15L311.11 89.26L310.51 89.4L309.91 89.56L309.33 89.74L308.76 89.94L308.2 90.16L307.65 90.41L307.11 90.68L306.59 90.96L306.07 91.27L305.57 91.59L305.09 91.93L304.61 92.29L304.15 92.67L303.71 93.07L303.28 93.48L302.87 93.91L302.48 94.35L302.1 94.81L301.74 95.28L301.39 95.77L301.07 96.27L300.76 96.78L300.48 97.31L300.21 97.85L299.97 98.4L299.74 98.96L299.54 99.53L299.36 100.11L299.2 100.7L299.07 101.3L298.95 101.91L298.87 102.53L298.8 103.15L298.77 103.78L298.75 104.42L298.77 105.06L298.8 105.69L298.87 106.31L298.95 106.93L299.07 107.54L299.2 108.14L299.36 108.73L299.54 109.31L299.74 109.88L299.97 110.44L300.21 110.99L300.48 111.53L300.76 112.05L301.07 112.57L301.39 113.07L301.74 113.56L302.1 114.03L302.48 114.49L302.87 114.93L303.28 115.36L303.71 115.77L304.15 116.17L304.61 116.54L305.09 116.9L305.57 117.25L306.07 117.57L306.59 117.88L307.11 118.16L307.65 118.43L308.2 118.67L308.76 118.9L309.33 119.1L309.91 119.28L310.51 119.44L311.11 119.58L311.71 119.69L312.33 119.78L312.95 119.84L313.59 119.88L314.22 119.89L314.86 119.88L315.49 119.84L316.12 119.78L316.73 119.69L317.34 119.58L317.94 119.44L318.53 119.28L319.11 119.1L319.68 118.9L320.24 118.67L320.79 118.43L321.33 118.16L321.86 117.88L322.37 117.57L322.87 117.25L323.36 116.9L323.83 116.54L324.29 116.17L324.73 115.77L325.16 115.36L325.57 114.93L325.97 114.49L326.35 114.03L326.71 113.56L327.05 113.07L327.38 112.57L327.68 112.05L327.97 111.53L328.23 110.99L328.48 110.44L328.7 109.88L328.91 109.31L329.09 108.73L329.24 108.14L329.38 107.54L329.49 106.93L329.58 106.31L329.64 105.69L329.68 105.06L329.69 104.42L329.68 103.78L329.64 103.15L329.58 102.53L329.49 101.91L329.38 101.3L329.24 100.7L329.09 100.11L328.91 99.53L328.7 98.96L328.48 98.4L328.23 97.85L327.97 97.31L327.68 96.78L327.38 96.27L327.05 95.77L326.71 95.28L326.35 94.81L325.97 94.35L325.57 93.91L325.16 93.48L324.73 93.07L324.29 92.67L323.83 92.29L323.36 91.93L322.87 91.59L322.37 91.27L321.86 90.96L321.33 90.68L320.79 90.41L320.24 90.16L319.68 89.94L319.11 89.74L318.53 89.56L317.94 89.4L317.34 89.26L316.73 89.15L316.12 89.06L315.49 89L314.86 88.96L314.22 88.95L313.59 88.96L312.95 89Z" id="fQQcmWyu8"></path></defs><g><g><g><use xlink:href="#bQ7Pbr3Ia" opacity="1" fill="#000000" fill-opacity="1"></use><g><use xlink:href="#bQ7Pbr3Ia" opacity="1" fill-opacity="0" stroke="#000000" stroke-width="1" stroke-opacity="0"></use></g></g><g><use xlink:href="#b9h0CNan0" opacity="1" fill="#ffffff" fill-opacity="1"></use><g><use xlink:href="#b9h0CNan0" opacity="1" fill-opacity="0" stroke="#000000" stroke-width="1" stroke-opacity="0"></use></g></g><g><use xlink:href="#gALq3DA4S" opacity="1" fill="#000000" fill-opacity="1"></use><g><use xlink:href="#gALq3DA4S" opacity="1" fill-opacity="0" stroke="#000000" stroke-width="1" stroke-opacity="0"></use></g></g><g><use xlink:href="#c2E5QP6iHh" opacity="1" fill="#ffffff" fill-opacity="1"></use><g><use xlink:href="#c2E5QP6iHh" opacity="1" fill-opacity="0" stroke="#ffffff" stroke-width="0" stroke-opacity="1"></use></g></g><g><use xlink:href="#a17rGTBKj" opacity="1" fill="#ffffff" fill-opacity="1"></use><g><use xlink:href="#a17rGTBKj" opacity="1" fill-opacity="0" stroke="#000000" stroke-width="1" stroke-opacity="0"></use></g></g><g><use xlink:href="#ejhA3in9Q" opacity="1" fill="#ffffff" fill-opacity="1"></use><g><use xlink:href="#ejhA3in9Q" opacity="1" fill-opacity="0" stroke="#000000" stroke-width="1" stroke-opacity="0"></use></g></g><g><use xlink:href="#ij5dXJXBm" opacity="1" fill="#ffffff" fill-opacity="1"></use><g><use xlink:href="#ij5dXJXBm" opacity="1" fill-opacity="0" stroke="#000000" stroke-width="1" stroke-opacity="0"></use></g></g><g><use xlink:href="#e1Uv32k1Ti" opacity="1" fill="#ffffff" fill-opacity="1"></use><g><use xlink:href="#e1Uv32k1Ti" opacity="1" fill-opacity="0" stroke="#000000" stroke-width="1" stroke-opacity="0"></use></g></g><g><use xlink:href="#d6Ixb7BeX" opacity="1" fill="#ffffff" fill-opacity="1"></use><g><use xlink:href="#d6Ixb7BeX" opacity="1" fill-opacity="0" stroke="#000000" stroke-width="1" stroke-opacity="0"></use></g></g><g><use xlink:href="#b38kWL4u4" opacity="1" fill="#ffffff" fill-opacity="1"></use><g><use xlink:href="#b38kWL4u4" opacity="1" fill-opacity="0" stroke="#000000" stroke-width="1" stroke-opacity="0"></use></g></g><g><use xlink:href="#d2PtSzdzps" opacity="1" fill="#ffffff" fill-opacity="0.98"></use></g><g><use xlink:href="#fQQcmWyu8" opacity="1" fill="#ffffff" fill-opacity="0.98"></use></g></g></g></svg>