<?xml version="1.0" encoding="UTF-8" standalone="no"?>
<!DOCTYPE svg PUBLIC "-//W3C//DTD SVG 1.1//EN" "http://www.w3.org/Graphics/SVG/1.1/DTD/svg11.dtd">
<svg version="1.1" xmlns="http://www.w3.org/2000/svg" xmlns:xlink="http://www.w3.org/1999/xlink" preserveAspectRatio="xMidYMid meet" viewBox="0 0 535.5 535.5" width="535.5" height="535.5"><defs><path d="M419.27 71.43C419.27 164.09 419.27 374.13 419.27 466.78C419.27 504.31 388.86 534.72 351.34 534.72C299.96 534.72 213.77 534.72 162.4 534.72C124.87 534.72 94.46 504.31 94.46 466.78C94.46 374.13 94.46 164.09 94.46 71.43C94.46 33.91 124.87 3.5 162.4 3.5C213.77 3.5 299.96 3.5 351.34 3.5C388.86 3.5 419.27 33.91 419.27 71.43Z" id="c5QYUhANTI"></path><path d="M256.87 488.94C197.72 488.94 149.71 440.94 149.71 381.8C149.71 322.67 197.72 274.66 256.87 274.66C316 274.66 364.01 322.67 364.01 381.8C364.01 440.94 316 488.94 256.87 488.94Z" id="b9h0CNan0"></path><path d="M256.87 458.5C218.27 458.5 186.93 427.17 186.93 388.57C186.93 349.97 218.27 318.65 256.87 318.65C295.45 318.65 326.79 349.97 326.79 388.57C326.79 427.17 295.45 458.5 256.87 458.5Z" id="gALq3DA4S"></path><path d="M329.89 347.81L259.97 295.94L190.04 347.81L329.89 347.81Z" id="c2E5QP6iHh"></path><path d="M221.9 381.8C216.29 381.8 211.75 377.26 211.75 371.65C211.75 366.06 216.29 361.5 221.9 361.5C227.5 361.5 232.05 366.06 232.05 371.65C232.05 377.26 227.5 381.8 221.9 381.8Z" id="a17rGTBKj"></path><path d="M290.35 381.8C284.76 381.8 280.2 377.26 280.2 371.65C280.2 366.06 284.76 361.5 290.35 361.5C295.96 361.5 300.5 366.06 300.5 371.65C300.5 377.26 295.96 381.8 290.35 381.8Z" id="ejhA3in9Q"></path><path d="M256.87 402.11C251.26 402.11 246.72 397.56 246.72 391.95C246.72 386.34 251.26 381.8 256.87 381.8C262.46 381.8 267 386.34 267 391.95C267 397.56 262.46 402.11 256.87 402.11Z" id="ij5dXJXBm"></path><path d="M221.9 417.56C216.29 417.56 211.75 413.01 211.75 407.41C211.75 401.8 216.29 397.25 221.9 397.25C227.5 397.25 232.05 401.8 232.05 407.41C232.05 413.01 227.5 417.56 221.9 417.56Z" id="e1Uv32k1Ti"></path><path d="M256.87 437.86C251.26 437.86 246.72 433.3 246.72 427.71C246.72 422.1 251.26 417.56 256.87 417.56C262.46 417.56 267 422.1 267 427.71C267 433.3 262.46 437.86 256.87 437.86Z" id="d6Ixb7BeX"></path><path d="M290.35 417.56C284.76 417.56 280.2 413.01 280.2 407.41C280.2 401.8 284.76 397.25 290.35 397.25C295.96 397.25 300.5 401.8 300.5 407.41C300.5 413.01 295.96 417.56 290.35 417.56Z" id="b38kWL4u4"></path><path d="M359.78 91.6C366.53 91.6 371.99 97.07 371.99 103.81C371.99 114.72 371.99 135.24 371.99 146.15C371.99 152.89 366.53 158.35 359.78 158.35C315.88 158.35 196.38 158.35 152.48 158.35C145.73 158.35 140.27 152.89 140.27 146.15C140.27 135.24 140.27 130.68 140.27 123.76C140.27 106 154.67 91.6 172.43 91.6C212.34 91.6 315.88 91.6 359.78 91.6Z" id="cEnRUZmC"></path><path d="M371.17 100.2C371.17 125.46 332.02 145.97 283.81 145.97C235.6 145.97 196.46 125.46 196.46 100.2C196.46 74.94 235.6 54.43 283.81 54.43C332.02 54.43 371.17 74.94 371.17 100.2Z" id="a4K0Ae4wqK"></path><path d="M335.88 149.69C335.88 165.53 323.02 178.39 307.18 178.39C291.33 178.39 278.47 165.53 278.47 149.69C278.47 133.84 291.33 120.98 307.18 120.98C323.02 120.98 335.88 133.84 335.88 149.69Z" id="a1BtasyZ5b"></path><path d="M332.07 150.16C332.07 163.64 321.13 174.58 307.65 174.58C294.18 174.58 283.24 163.64 283.24 150.16C283.24 136.69 294.18 125.75 307.65 125.75C321.13 125.75 332.07 136.69 332.07 150.16Z" id="b1o2m3KVmb"></path><path d="M233.66 148.54C233.66 164.39 220.8 177.25 204.95 177.25C189.11 177.25 176.25 164.39 176.25 148.54C176.25 132.7 189.11 119.84 204.95 119.84C220.8 119.84 233.66 132.7 233.66 148.54Z" id="d3LqpFhb"></path><path d="M229.84 149.02C229.84 162.5 218.9 173.44 205.43 173.44C191.95 173.44 181.01 162.5 181.01 149.02C181.01 135.55 191.95 124.6 205.43 124.6C218.9 124.6 229.84 135.55 229.84 149.02Z" id="b7KaTTPfQ"></path><path d="M222.98 149.79C222.98 159.58 215.03 167.53 205.24 167.53C195.45 167.53 187.5 159.58 187.5 149.79C187.5 139.99 195.45 132.04 205.24 132.04C215.03 132.04 222.98 139.99 222.98 149.79Z" id="be2bFoOSi"></path><path d="M325.2 150.93C325.2 160.72 317.25 168.67 307.46 168.67C297.67 168.67 289.72 160.72 289.72 150.93C289.72 141.14 297.67 133.19 307.46 133.19C317.25 133.19 325.2 141.14 325.2 150.93Z" id="fw5eLoBNo"></path><path d="M291.22 204.15L257.75 184.28L224.28 204.15L246.04 204.15L246.04 231.35L224.28 231.35L257.75 251.22L291.22 231.35L269.46 231.35L269.46 204.15L291.22 204.15Z" id="ayNwMRkwt"></path></defs><g><g><g><use xlink:href="#c5QYUhANTI" opacity="1" fill="#000000" fill-opacity="1"></use><g><use xlink:href="#c5QYUhANTI" opacity="1" fill-opacity="0" stroke="#000000" stroke-width="1" stroke-opacity="0"></use></g></g><g><use xlink:href="#b9h0CNan0" opacity="1" fill="#ffffff" fill-opacity="1"></use><g><use xlink:href="#b9h0CNan0" opacity="1" fill-opacity="0" stroke="#000000" stroke-width="1" stroke-opacity="0"></use></g></g><g><use xlink:href="#gALq3DA4S" opacity="1" fill="#000000" fill-opacity="1"></use><g><use xlink:href="#gALq3DA4S" opacity="1" fill-opacity="0" stroke="#000000" stroke-width="1" stroke-opacity="0"></use></g></g><g><use xlink:href="#c2E5QP6iHh" opacity="1" fill="#ffffff" fill-opacity="1"></use><g><use xlink:href="#c2E5QP6iHh" opacity="1" fill-opacity="0" stroke="#ffffff" stroke-width="0" stroke-opacity="1"></use></g></g><g><use xlink:href="#a17rGTBKj" opacity="1" fill="#ffffff" fill-opacity="1"></use><g><use xlink:href="#a17rGTBKj" opacity="1" fill-opacity="0" stroke="#000000" stroke-width="1" stroke-opacity="0"></use></g></g><g><use xlink:href="#ejhA3in9Q" opacity="1" fill="#ffffff" fill-opacity="1"></use><g><use xlink:href="#ejhA3in9Q" opacity="1" fill-opacity="0" stroke="#000000" stroke-width="1" stroke-opacity="0"></use></g></g><g><use xlink:href="#ij5dXJXBm" opacity="1" fill="#ffffff" fill-opacity="1"></use><g><use xlink:href="#ij5dXJXBm" opacity="1" fill-opacity="0" stroke="#000000" stroke-width="1" stroke-opacity="0"></use></g></g><g><use xlink:href="#e1Uv32k1Ti" opacity="1" fill="#ffffff" fill-opacity="1"></use><g><use xlink:href="#e1Uv32k1Ti" opacity="1" fill-opacity="0" stroke="#000000" stroke-width="1" stroke-opacity="0"></use></g></g><g><use xlink:href="#d6Ixb7BeX" opacity="1" fill="#ffffff" fill-opacity="1"></use><g><use xlink:href="#d6Ixb7BeX" opacity="1" fill-opacity="0" stroke="#000000" stroke-width="1" stroke-opacity="0"></use></g></g><g><use xlink:href="#b38kWL4u4" opacity="1" fill="#ffffff" fill-opacity="1"></use><g><use xlink:href="#b38kWL4u4" opacity="1" fill-opacity="0" stroke="#000000" stroke-width="1" stroke-opacity="0"></use></g></g><g><g><g><use xlink:href="#cEnRUZmC" opacity="1" fill="#ffffff" fill-opacity="0.98"></use></g><g><use xlink:href="#a4K0Ae4wqK" opacity="1" fill="#ffffff" fill-opacity="1"></use></g><g><use xlink:href="#a1BtasyZ5b" opacity="1" fill="#000000" fill-opacity="1"></use></g><g><use xlink:href="#b1o2m3KVmb" opacity="1" fill="#ffffff" fill-opacity="0.98"></use></g><g><use xlink:href="#d3LqpFhb" opacity="1" fill="#000000" fill-opacity="1"></use></g><g><use xlink:href="#b7KaTTPfQ" opacity="1" fill="#ffffff" fill-opacity="0.98"></use></g><g><use xlink:href="#be2bFoOSi" opacity="1" fill="#000000" fill-opacity="0.98"></use></g></g><g><use xlink:href="#fw5eLoBNo" opacity="1" fill="#000000" fill-opacity="0.98"></use></g></g><g><use xlink:href="#ayNwMRkwt" opacity="1" fill="#ffffff" fill-opacity="0.98"></use></g></g></g></svg>