<?xml version="1.0" encoding="UTF-8" standalone="no"?>
<!DOCTYPE svg PUBLIC "-//W3C//DTD SVG 1.1//EN" "http://www.w3.org/Graphics/SVG/1.1/DTD/svg11.dtd">
<svg version="1.1" xmlns="http://www.w3.org/2000/svg" xmlns:xlink="http://www.w3.org/1999/xlink" preserveAspectRatio="xMidYMid meet" viewBox="0 0 640 640" width="640" height="640"><defs><path d="M326.4 113.8C350.68 113.8 370.36 133.48 370.36 157.76C370.36 217.73 370.36 353.66 370.36 413.62C370.36 437.91 350.68 457.59 326.4 457.59C293.15 457.59 237.37 457.59 204.12 457.59C179.83 457.59 160.15 437.91 160.15 413.62C160.15 353.66 160.15 217.73 160.15 157.76C160.15 133.48 179.83 113.8 204.12 113.8C237.37 113.8 293.15 113.8 326.4 113.8Z" id="b8KoY849R"></path><path d="M334.6 359.05C334.6 397.32 303.53 428.39 265.26 428.39C226.98 428.39 195.91 397.32 195.91 359.05C195.91 320.78 226.98 289.71 265.26 289.71C303.53 289.71 334.6 320.78 334.6 359.05Z" id="a1IJLAqtZ9"></path><path d="M310.51 363.43C310.51 388.41 290.23 408.69 265.26 408.69C240.28 408.69 220 388.41 220 363.43C220 338.45 240.28 318.18 265.26 318.18C290.23 318.18 310.51 338.45 310.51 363.43Z" id="blk7mXZO3"></path><path d="M220 338.26L310.51 338.26L265.26 304.69L220 338.26Z" id="crwL0TTeT"></path><path d="M249.2 352.48C249.2 356.11 246.25 359.05 242.63 359.05C239 359.05 236.06 356.11 236.06 352.48C236.06 348.86 239 345.91 242.63 345.91C246.25 345.91 249.2 348.86 249.2 352.48Z" id="guIuvUv0J"></path><path d="M293.5 352.48C293.5 356.11 290.56 359.05 286.93 359.05C283.31 359.05 280.36 356.11 280.36 352.48C280.36 348.86 283.31 345.91 286.93 345.91C290.56 345.91 293.5 348.86 293.5 352.48Z" id="b6OLgVsR6l"></path><path d="M271.82 365.62C271.82 369.25 268.88 372.19 265.26 372.19C261.63 372.19 258.69 369.25 258.69 365.62C258.69 361.99 261.63 359.05 265.26 359.05C268.88 359.05 271.82 361.99 271.82 365.62Z" id="a1yflulw5"></path><path d="M249.2 375.62C249.2 379.25 246.25 382.19 242.63 382.19C239 382.19 236.06 379.25 236.06 375.62C236.06 371.99 239 369.05 242.63 369.05C246.25 369.05 249.2 371.99 249.2 375.62Z" id="cO2xKuzIO"></path><path d="M293.5 375.62C293.5 379.25 290.56 382.19 286.93 382.19C283.31 382.19 280.36 379.25 280.36 375.62C280.36 371.99 283.31 369.05 286.93 369.05C290.56 369.05 293.5 371.99 293.5 375.62Z" id="a2RsrtEmUY"></path><path d="M271.82 388.76C271.82 392.38 268.88 395.33 265.26 395.33C261.63 395.33 258.69 392.38 258.69 388.76C258.69 385.13 261.63 382.19 265.26 382.19C268.88 382.19 271.82 385.13 271.82 388.76Z" id="d8R8Sircm7"></path><path d="M337.66 169.27C337.66 192.23 319.02 210.88 296.06 210.88C273.1 210.88 254.45 192.23 254.45 169.27C254.45 146.31 273.1 127.66 296.06 127.66C319.02 127.66 337.66 146.31 337.66 169.27Z" id="a1uaUA8RAz"></path><path d="M330.18 169.27C330.18 188.1 314.89 203.39 296.06 203.39C277.22 203.39 261.93 188.1 261.93 169.27C261.93 150.44 277.22 135.15 296.06 135.15C314.89 135.15 330.18 150.44 330.18 169.27Z" id="a7k5wfiSd"></path><path d="M189.12 171.46L280.36 171.46L280.36 256.86L189.12 256.86L189.12 171.46Z" id="avt18b4o4"></path><path d="M280.36 171.46L358.69 171.46L358.69 248.83L280.36 248.83L280.36 171.46Z" id="k1jTpIBynV"></path></defs><g><g><g><use xlink:href="#b8KoY849R" opacity="1" fill="#01afdb" fill-opacity="1"></use></g><g><use xlink:href="#a1IJLAqtZ9" opacity="1" fill="#000000" fill-opacity="1"></use></g><g><use xlink:href="#blk7mXZO3" opacity="1" fill="#2c2c2c" fill-opacity="1"></use></g><g><use xlink:href="#crwL0TTeT" opacity="1" fill="#000000" fill-opacity="1"></use><g><use xlink:href="#crwL0TTeT" opacity="1" fill-opacity="0" stroke="#000000" stroke-width="1" stroke-opacity="1"></use></g></g><g><use xlink:href="#guIuvUv0J" opacity="1" fill="#000606" fill-opacity="1"></use></g><g><use xlink:href="#b6OLgVsR6l" opacity="1" fill="#000606" fill-opacity="1"></use></g><g><use xlink:href="#a1yflulw5" opacity="1" fill="#000606" fill-opacity="1"></use></g><g><use xlink:href="#cO2xKuzIO" opacity="1" fill="#000606" fill-opacity="1"></use></g><g><use xlink:href="#a2RsrtEmUY" opacity="1" fill="#000606" fill-opacity="1"></use></g><g><use xlink:href="#d8R8Sircm7" opacity="1" fill="#000606" fill-opacity="1"></use></g><g><use xlink:href="#a1uaUA8RAz" opacity="1" fill="#000e0e" fill-opacity="1"></use></g><g><use xlink:href="#a7k5wfiSd" opacity="1" fill="#01afdb" fill-opacity="1"></use></g><g><use xlink:href="#avt18b4o4" opacity="1" fill="#000e0e" fill-opacity="1"></use></g><g><use xlink:href="#k1jTpIBynV" opacity="1" fill="#01afdb" fill-opacity="1"></use></g></g></g></svg>