<?xml version="1.0" encoding="UTF-8" standalone="no"?>
<!DOCTYPE svg PUBLIC "-//W3C//DTD SVG 1.1//EN" "http://www.w3.org/Graphics/SVG/1.1/DTD/svg11.dtd">
<svg version="1.1" xmlns="http://www.w3.org/2000/svg" xmlns:xlink="http://www.w3.org/1999/xlink" preserveAspectRatio="xMidYMid meet" viewBox="0 0 535.5 535.5" width="535.5" height="535.5"><defs><path d="M357.56 3.08L360.3 3.35L363.01 3.74L365.68 4.23L368.32 4.83L370.91 5.52L373.46 6.31L375.97 7.2L378.43 8.19L380.85 9.27L383.21 10.43L385.52 11.69L387.77 13.03L389.97 14.45L392.11 15.96L394.19 17.54L396.2 19.2L398.15 20.94L400.02 22.75L401.83 24.62L403.57 26.57L405.23 28.58L406.81 30.66L408.32 32.8L409.74 35L411.08 37.25L412.34 39.56L413.5 41.92L414.58 44.34L415.57 46.8L416.46 49.31L417.25 51.86L417.94 54.45L418.54 57.09L419.03 59.76L419.42 62.46L419.69 65.21L419.86 67.98L419.92 70.78L419.92 466.12L419.86 468.92L419.69 471.7L419.42 474.44L419.03 477.14L418.54 479.82L417.94 482.45L417.25 485.05L416.46 487.6L415.57 490.11L414.58 492.57L413.5 494.99L412.34 497.35L411.08 499.66L409.74 501.91L408.32 504.11L406.81 506.25L405.23 508.33L403.57 510.34L401.83 512.29L400.02 514.17L398.15 515.98L396.2 517.71L394.19 519.37L392.11 520.96L389.97 522.46L387.77 523.89L385.52 525.23L383.21 526.48L380.85 527.65L378.43 528.72L375.97 529.71L373.46 530.6L370.91 531.39L368.32 532.09L365.68 532.68L363.01 533.17L360.3 533.56L357.56 533.84L354.79 534.01L351.99 534.06L163.05 534.06L160.25 534.01L157.48 533.84L154.74 533.56L152.03 533.17L149.36 532.68L146.72 532.09L144.13 531.39L141.57 530.6L139.06 529.71L136.6 528.72L134.19 527.65L131.82 526.48L129.51 525.23L127.26 523.89L125.06 522.46L122.92 520.96L120.85 519.37L118.83 517.71L116.88 515.98L115.01 514.17L113.2 512.29L111.46 510.34L109.8 508.33L108.22 506.25L106.71 504.11L105.29 501.91L103.95 499.66L102.69 497.35L101.52 494.99L100.45 492.57L99.46 490.11L98.57 487.6L97.78 485.05L97.08 482.45L96.49 479.82L96 477.14L95.61 474.44L95.34 471.7L95.17 468.92L95.11 466.12L95.11 70.78L95.17 67.98L95.34 65.21L95.61 62.46L96 59.76L96.49 57.09L97.08 54.45L97.78 51.86L98.57 49.31L99.46 46.8L100.45 44.34L101.52 41.92L102.69 39.56L103.95 37.25L105.29 35L106.71 32.8L108.22 30.66L109.8 28.58L111.46 26.57L113.2 24.62L115.01 22.75L116.88 20.94L118.83 19.2L120.85 17.54L122.92 15.96L125.06 14.45L127.26 13.03L129.51 11.69L131.82 10.43L134.19 9.27L136.6 8.19L139.06 7.2L141.57 6.31L144.13 5.52L146.72 4.83L149.36 4.23L152.03 3.74L154.74 3.35L157.48 3.08L160.25 2.91L163.05 2.85L351.99 2.85L354.79 2.91L357.56 3.08ZM248.74 274.36L244.42 274.8L240.15 275.41L235.94 276.19L231.78 277.12L227.69 278.22L223.66 279.47L219.71 280.88L215.83 282.43L212.02 284.13L208.29 285.97L204.65 287.95L201.09 290.07L197.62 292.32L194.25 294.69L190.97 297.19L187.8 299.81L184.73 302.55L181.76 305.4L178.91 308.37L176.17 311.44L173.55 314.61L171.05 317.89L168.67 321.26L166.43 324.73L164.31 328.28L162.33 331.93L160.49 335.65L158.79 339.46L157.24 343.34L155.83 347.3L154.58 351.32L153.48 355.41L152.54 359.57L151.77 363.78L151.16 368.05L150.72 372.37L150.45 376.73L150.37 381.15L150.45 385.56L150.72 389.93L151.16 394.25L151.77 398.52L152.54 402.73L153.48 406.88L154.58 410.97L155.83 415L157.24 418.95L158.79 422.84L160.49 426.64L162.33 430.37L164.31 434.01L166.43 437.57L168.67 441.04L171.05 444.41L173.55 447.68L176.17 450.86L178.91 453.93L181.76 456.89L184.73 459.75L187.8 462.49L190.97 465.11L194.25 467.61L197.62 469.98L201.09 472.23L204.65 474.34L208.29 476.32L212.02 478.17L215.83 479.86L219.71 481.42L223.66 482.82L227.69 484.08L231.78 485.17L235.94 486.11L240.15 486.89L244.42 487.5L248.74 487.93L253.11 488.2L257.52 488.29L261.94 488.2L266.3 487.93L270.62 487.5L274.89 486.89L279.1 486.11L283.26 485.17L287.35 484.08L291.37 482.82L295.33 481.42L299.21 479.86L303.02 478.17L306.74 476.32L310.39 474.34L313.94 472.23L317.41 469.98L320.78 467.61L324.06 465.11L327.23 462.49L330.3 459.75L333.27 456.89L336.12 453.93L338.86 450.86L341.48 447.68L343.98 444.41L346.36 441.04L348.6 437.57L350.72 434.01L352.7 430.37L354.54 426.64L356.24 422.84L357.79 418.95L359.2 415L360.45 410.97L361.55 406.88L362.49 402.73L363.26 398.52L363.87 394.25L364.31 389.93L364.57 385.56L364.66 381.15L364.57 376.73L364.31 372.37L363.87 368.05L363.26 363.78L362.49 359.57L361.55 355.41L360.45 351.32L359.2 347.3L357.79 343.34L356.24 339.46L354.54 335.65L352.7 331.93L350.72 328.28L348.6 324.73L346.36 321.26L343.98 317.89L341.48 314.61L338.86 311.44L336.12 308.37L333.27 305.4L330.3 302.55L327.23 299.81L324.06 297.19L320.78 294.69L317.41 292.32L313.94 290.07L310.39 287.95L306.74 285.97L303.02 284.13L299.21 282.43L295.33 280.88L291.37 279.47L287.35 278.22L283.26 277.12L279.1 276.19L274.89 275.41L270.62 274.8L266.3 274.36L261.94 274.1L257.52 274.01L253.11 274.1L248.74 274.36ZM237.68 61.88L236.13 62.04L234.58 62.26L233.06 62.54L231.57 62.87L230.09 63.27L228.64 63.72L227.21 64.23L225.81 64.79L224.43 65.4L223.09 66.07L221.77 66.78L220.49 67.55L219.24 68.36L218.02 69.22L216.84 70.12L215.69 71.06L214.58 72.05L213.51 73.08L212.48 74.15L211.49 75.26L210.55 76.41L209.65 77.59L208.79 78.81L207.98 80.06L207.21 81.34L206.5 82.66L205.83 84L205.22 85.38L204.66 86.78L204.15 88.21L203.7 89.66L203.3 91.14L202.97 92.63L202.69 94.15L202.47 95.7L202.46 95.73L202.25 94.25L201.97 92.73L201.63 91.23L201.24 89.75L200.79 88.3L200.28 86.87L199.72 85.47L199.1 84.1L198.44 82.75L197.72 81.44L196.96 80.15L196.15 78.9L195.29 77.69L194.39 76.5L193.44 75.36L192.46 74.25L191.43 73.18L190.36 72.15L189.25 71.16L188.1 70.21L186.92 69.31L185.7 68.45L184.45 67.64L183.17 66.88L181.85 66.17L180.51 65.5L179.13 64.89L177.73 64.33L176.3 63.82L174.85 63.37L173.37 62.97L171.87 62.63L170.35 62.35L168.81 62.13L167.25 61.97L165.68 61.88L164.08 61.85L162.49 61.88L160.91 61.97L159.36 62.13L157.81 62.35L156.29 62.63L154.8 62.97L153.32 63.37L151.87 63.82L150.44 64.33L149.04 64.89L147.66 65.5L146.32 66.17L145 66.88L143.72 67.64L142.47 68.45L141.25 69.31L140.07 70.21L138.92 71.16L137.81 72.15L136.74 73.18L135.71 74.25L134.72 75.36L133.78 76.5L132.88 77.69L132.02 78.9L131.21 80.15L130.44 81.44L129.73 82.75L129.06 84.1L128.45 85.47L127.89 86.87L127.38 88.3L126.93 89.75L126.53 91.23L126.2 92.73L125.92 94.25L125.7 95.79L125.54 97.35L125.44 98.93L125.41 100.52L125.44 102.11L125.54 103.69L125.7 105.25L125.92 106.79L126.2 108.31L126.53 109.81L126.93 111.29L127.38 112.74L127.89 114.17L128.45 115.57L129.06 116.94L129.73 118.29L130.44 119.6L131.21 120.89L132.02 122.14L132.88 123.35L133.78 124.54L134.72 125.68L135.71 126.79L136.74 127.86L137.81 128.89L138.92 129.88L140.07 130.83L141.25 131.73L142.47 132.59L143.72 133.4L145 134.16L146.32 134.88L147.66 135.54L149.04 136.15L150.44 136.71L151.87 137.22L153.32 137.67L154.8 138.07L156.29 138.41L157.81 138.69L159.36 138.91L160.91 139.07L162.49 139.16L163.6 139.19L163.6 139.6L163.95 139.63L165.26 139.82L166.55 140.06L167.83 140.35L169.08 140.68L170.32 141.07L171.53 141.5L172.72 141.98L173.89 142.5L175.03 143.06L176.15 143.67L177.24 144.32L178.3 145.01L179.34 145.74L180.34 146.5L181.32 147.31L182.26 148.15L183.17 149.02L184.05 149.93L184.89 150.88L185.69 151.85L186.46 152.85L187.19 153.89L187.87 154.95L188.52 156.04L189.13 157.16L189.7 158.31L190.22 159.47L190.69 160.66L191.13 161.88L191.51 163.11L191.85 164.37L192.13 165.64L192.37 166.93L192.56 168.24L192.69 169.57L192.78 170.91L192.8 172.26L192.78 173.62L192.69 174.96L192.56 176.28L192.37 177.59L192.13 178.89L191.85 180.16L191.51 181.42L191.13 182.65L190.69 183.86L190.22 185.05L189.7 186.22L189.13 187.37L188.52 188.48L187.87 189.58L187.19 190.64L186.46 191.67L185.69 192.68L184.89 193.65L184.05 194.6L183.17 195.5L182.26 196.38L181.32 197.22L180.34 198.02L179.34 198.79L178.3 199.52L177.24 200.21L176.15 200.86L175.03 201.47L173.89 202.03L172.72 202.55L171.53 203.03L170.32 203.46L169.08 203.84L167.83 204.18L166.55 204.47L165.26 204.71L163.95 204.89L163.6 204.93L163.6 210.33L164.27 210.26L165.81 210.04L167.33 209.76L168.83 209.43L170.31 209.03L171.76 208.58L173.19 208.07L174.59 207.51L175.96 206.9L177.31 206.23L178.62 205.52L179.91 204.75L181.16 203.94L182.38 203.09L183.56 202.18L184.71 201.24L185.81 200.25L186.88 199.22L187.91 198.15L188.9 197.04L189.85 195.89L190.75 194.71L191.61 193.49L192.42 192.24L193.18 190.96L193.9 189.64L194.56 188.3L195.18 186.92L195.74 185.52L196.24 184.1L196.7 182.64L197.09 181.17L197.43 179.67L197.71 178.15L197.93 176.61L198.09 175.05L198.18 173.47L198.22 171.88L198.18 170.28L198.09 168.71L197.93 167.15L197.71 165.61L197.43 164.09L197.09 162.59L196.7 161.11L196.24 159.66L195.74 158.23L195.18 156.83L194.56 155.45L193.9 154.11L193.18 152.79L192.42 151.51L191.61 150.26L190.75 149.04L189.85 147.86L188.9 146.71L187.91 145.6L186.88 144.53L185.81 143.51L184.71 142.52L183.56 141.57L182.38 140.67L181.16 139.81L179.91 139L178.62 138.24L177.31 137.52L176.54 137.14L177.73 136.71L179.13 136.15L180.51 135.54L181.85 134.88L183.17 134.16L184.45 133.4L185.7 132.59L186.92 131.73L188.1 130.83L189.25 129.88L190.36 128.89L191.43 127.86L192.46 126.79L193.44 125.68L194.39 124.54L195.29 123.35L196.15 122.14L196.96 120.89L197.72 119.6L198.44 118.29L199.1 116.94L199.72 115.57L200.28 114.17L200.79 112.74L201.24 111.29L201.63 109.81L201.97 108.31L202.25 106.79L202.47 105.25L202.48 105.22L202.69 106.69L202.97 108.21L203.3 109.71L203.7 111.19L204.15 112.64L204.66 114.07L205.22 115.47L205.83 116.85L206.5 118.19L207.21 119.51L207.98 120.79L208.79 122.04L209.65 123.26L210.55 124.44L211.49 125.59L212.48 126.7L213.51 127.77L214.58 128.8L215.69 129.78L216.84 130.73L218.02 131.63L219.24 132.49L220.49 133.3L221.77 134.06L223.09 134.78L224.43 135.44L225.81 136.06L227.21 136.62L228.64 137.13L230.09 137.58L231.57 137.97L233.06 138.31L234.58 138.59L236.13 138.81L237.68 138.97L239.26 139.07L240.85 139.1L242.45 139.07L244.02 138.97L245.58 138.81L247.12 138.59L248.64 138.31L250.14 137.97L251.62 137.58L253.07 137.13L254.5 136.62L255.9 136.06L257.28 135.44L258.62 134.78L259.94 134.06L261.22 133.3L262.47 132.49L263.69 131.63L264.87 130.73L266.02 129.78L267.13 128.8L268.2 127.77L269.23 126.7L270.21 125.59L271.16 124.44L272.06 123.26L272.92 122.04L273.73 120.79L274.49 119.51L275.21 118.19L275.87 116.85L276.49 115.47L277.05 114.07L277.56 112.64L278.01 111.19L278.4 109.71L278.74 108.21L279.02 106.69L279.24 105.15L279.4 103.59L279.5 102.02L279.53 100.42L279.5 98.83L279.4 97.25L279.24 95.7L279.02 94.15L278.74 92.63L278.4 91.14L278.01 89.66L277.56 88.21L277.05 86.78L276.49 85.38L275.87 84L275.21 82.66L274.49 81.34L273.73 80.06L272.92 78.81L272.06 77.59L271.16 76.41L270.21 75.26L269.23 74.15L268.2 73.08L267.13 72.05L266.02 71.06L264.87 70.12L263.69 69.22L262.47 68.36L261.22 67.55L259.94 66.78L258.62 66.07L257.28 65.4L255.9 64.79L254.5 64.23L253.07 63.72L251.62 63.27L250.14 62.87L248.64 62.54L247.12 62.26L245.58 62.04L244.02 61.88L242.45 61.78L240.85 61.75L239.26 61.78L237.68 61.88ZM342.13 62.4L340.57 62.56L339.03 62.78L337.51 63.06L336.01 63.4L334.53 63.79L333.08 64.25L331.65 64.75L330.25 65.32L328.88 65.93L327.53 66.59L326.22 67.31L324.93 68.07L323.68 68.88L322.47 69.74L321.28 70.64L320.14 71.59L319.03 72.58L317.96 73.61L316.93 74.68L315.94 75.79L314.99 76.93L314.09 78.11L313.23 79.33L312.42 80.58L311.66 81.87L310.95 83.18L310.28 84.53L309.67 85.9L309.11 87.3L308.6 88.73L308.15 90.18L307.75 91.66L307.41 93.16L307.13 94.68L306.97 95.85L306.97 106.05L307.13 107.22L307.41 108.74L307.75 110.24L308.15 111.71L308.6 113.17L309.11 114.6L309.67 116L310.28 117.37L310.95 118.72L311.66 120.03L312.42 121.31L313.23 122.57L314.09 123.78L314.99 124.97L315.94 126.11L316.93 127.22L317.96 128.29L319.03 129.32L320.14 130.31L321.28 131.25L322.47 132.16L323.68 133.01L324.93 133.83L326.22 134.59L327.53 135.3L328.88 135.97L330.25 136.58L331.65 137.14L333.08 137.65L334.53 138.1L336.01 138.5L337.51 138.84L339.03 139.12L340.57 139.34L342.13 139.49L343.71 139.59L343.86 139.59L343.86 134.34L343.19 134.3L341.86 134.16L340.55 133.97L339.26 133.74L337.99 133.45L336.73 133.11L335.5 132.73L334.28 132.3L333.09 131.82L331.93 131.3L330.78 130.73L329.66 130.13L328.57 129.48L327.51 128.79L326.47 128.06L325.47 127.29L324.49 126.49L323.55 125.65L322.64 124.77L321.77 123.86L320.93 122.92L320.12 121.95L319.36 120.94L318.63 119.91L317.94 118.84L317.29 117.75L316.68 116.63L316.12 115.49L315.6 114.32L315.12 113.13L314.69 111.92L314.3 110.68L313.97 109.43L313.68 108.15L313.44 106.86L313.25 105.55L313.12 104.23L313.08 103.57L380.53 103.57L380.53 103.3L383.9 103.3L383.94 102.54L383.97 100.95L383.94 99.36L383.85 97.78L383.69 96.22L383.47 94.68L383.19 93.16L382.85 91.66L382.45 90.18L382 88.73L381.49 87.3L380.93 85.9L380.32 84.53L379.66 83.18L378.94 81.87L378.18 80.58L377.37 79.33L376.51 78.11L375.61 76.93L374.66 75.79L373.67 74.68L372.64 73.61L371.57 72.58L370.46 71.59L369.32 70.64L368.13 69.74L366.92 68.88L365.67 68.07L364.38 67.31L363.07 66.59L361.72 65.93L360.35 65.32L358.95 64.75L357.52 64.25L356.07 63.79L354.59 63.4L353.09 63.06L351.57 62.78L350.03 62.56L348.47 62.4L346.89 62.31L345.3 62.27L343.71 62.31L342.13 62.4ZM166.88 68.34L168.2 68.47L169.51 68.66L170.81 68.9L172.08 69.19L173.34 69.52L174.57 69.91L175.78 70.34L176.98 70.82L178.14 71.34L179.29 71.9L180.4 72.51L181.5 73.16L182.56 73.85L183.59 74.58L184.6 75.34L185.57 76.15L186.52 76.99L187.43 77.86L188.3 78.77L189.14 79.72L189.95 80.69L190.71 81.69L191.44 82.73L192.13 83.79L192.78 84.88L193.39 86L193.95 87.15L194.47 88.31L194.95 89.5L195.38 90.72L195.77 91.95L196.1 93.21L196.39 94.48L196.63 95.77L196.81 97.08L196.95 98.41L197.03 99.75L197.06 101.1L197.03 102.46L196.95 103.8L196.81 105.12L196.63 106.43L196.39 107.73L196.1 109L195.77 110.25L195.38 111.49L194.95 112.7L194.47 113.89L193.95 115.06L193.39 116.21L192.78 117.32L192.13 118.41L191.44 119.48L190.71 120.51L189.95 121.52L189.14 122.49L188.3 123.44L187.43 124.34L186.52 125.22L185.57 126.06L184.6 126.86L183.59 127.63L182.56 128.36L181.5 129.05L180.4 129.7L179.29 130.31L178.14 130.87L176.98 131.39L175.78 131.87L174.57 132.3L173.34 132.68L172.08 133.02L170.81 133.31L169.51 133.55L168.2 133.73L166.88 133.87L166.73 133.88L165.81 133.71L164.27 133.49L163.6 133.42L163.6 133.97L162.83 133.95L161.49 133.87L160.16 133.73L158.86 133.55L157.56 133.31L156.29 133.02L155.03 132.68L153.8 132.3L152.59 131.87L151.39 131.39L150.23 130.87L149.08 130.31L147.97 129.7L146.87 129.05L145.81 128.36L144.78 127.63L143.77 126.86L142.8 126.06L141.85 125.22L140.94 124.34L140.07 123.44L139.23 122.49L138.42 121.52L137.66 120.51L136.93 119.48L136.24 118.41L135.59 117.32L134.98 116.21L134.42 115.06L133.9 113.89L133.42 112.7L132.99 111.49L132.6 110.25L132.27 109L131.98 107.73L131.74 106.43L131.56 105.12L131.42 103.8L131.34 102.46L131.31 101.1L131.34 99.75L131.42 98.41L131.56 97.08L131.74 95.77L131.98 94.48L132.27 93.21L132.6 91.95L132.99 90.72L133.42 89.5L133.9 88.31L134.42 87.15L134.98 86L135.59 84.88L136.24 83.79L136.93 82.73L137.66 81.69L138.42 80.69L139.23 79.72L140.07 78.77L140.94 77.86L141.85 76.99L142.8 76.15L143.77 75.34L144.78 74.58L145.81 73.85L146.87 73.16L147.97 72.51L149.08 71.9L150.23 71.34L151.39 70.82L152.59 70.34L153.8 69.91L155.03 69.52L156.29 69.19L157.56 68.9L158.86 68.66L160.16 68.47L161.49 68.34L162.83 68.26L164.18 68.23L165.54 68.26L166.88 68.34ZM244.13 68.24L245.46 68.38L246.77 68.57L248.06 68.8L249.33 69.09L250.59 69.43L251.82 69.81L253.04 70.24L254.23 70.72L255.4 71.24L256.54 71.81L257.66 72.41L258.75 73.06L259.81 73.75L260.85 74.48L261.85 75.25L262.83 76.05L263.77 76.89L264.68 77.77L265.55 78.68L266.39 79.62L267.2 80.59L267.97 81.6L268.69 82.63L269.38 83.7L270.03 84.79L270.64 85.91L271.2 87.05L271.73 88.22L272.2 89.41L272.63 90.62L273.02 91.86L273.36 93.11L273.64 94.39L273.88 95.68L274.07 96.99L274.2 98.31L274.28 99.65L274.31 101.01L274.28 102.36L274.2 103.7L274.07 105.03L273.88 106.34L273.64 107.63L273.36 108.9L273.02 110.16L272.63 111.39L272.2 112.61L271.73 113.8L271.2 114.97L270.64 116.11L270.03 117.23L269.38 118.32L268.69 119.38L267.97 120.42L267.2 121.42L266.39 122.4L265.55 123.34L264.68 124.25L263.77 125.12L262.83 125.96L261.85 126.77L260.85 127.54L259.81 128.26L258.75 128.95L257.66 129.6L256.54 130.21L255.4 130.78L254.23 131.3L253.04 131.77L251.82 132.2L250.59 132.59L249.33 132.93L248.06 133.21L246.77 133.45L245.46 133.64L244.13 133.77L242.79 133.85L241.44 133.88L240.08 133.85L238.74 133.77L237.42 133.64L236.11 133.45L234.82 133.21L233.54 132.93L232.29 132.59L231.05 132.2L229.84 131.77L228.65 131.3L227.48 130.78L226.34 130.21L225.22 129.6L224.13 128.95L223.06 128.26L222.03 127.54L221.02 126.77L220.05 125.96L219.11 125.12L218.2 124.25L217.32 123.34L216.48 122.4L215.68 121.42L214.91 120.42L214.18 119.38L213.49 118.32L212.84 117.23L212.24 116.11L211.67 114.97L211.15 113.8L210.67 112.61L210.24 111.39L209.86 110.16L209.52 108.9L209.23 107.63L209 106.34L208.81 105.03L208.67 103.7L208.59 102.36L208.56 101.01L208.59 99.65L208.67 98.31L208.81 96.99L209 95.68L209.23 94.39L209.52 93.11L209.86 91.86L210.24 90.62L210.67 89.41L211.15 88.22L211.67 87.05L212.24 85.91L212.84 84.79L213.49 83.7L214.18 82.63L214.91 81.6L215.68 80.59L216.48 79.62L217.32 78.68L218.2 77.77L219.11 76.89L220.05 76.05L221.02 75.25L222.03 74.48L223.06 73.75L224.13 73.06L225.22 72.41L226.34 71.81L227.48 71.24L228.65 70.72L229.84 70.24L231.05 69.81L232.29 69.43L233.54 69.09L234.82 68.8L236.11 68.57L237.42 68.38L238.74 68.24L240.08 68.16L241.44 68.13L242.79 68.16L244.13 68.24ZM280.97 103.7L303.84 103.7L303.84 97.82L280.97 97.82L280.97 103.7ZM348.58 68.77L349.9 68.9L351.21 69.09L352.51 69.33L353.78 69.61L355.03 69.95L356.27 70.34L357.48 70.77L358.67 71.24L359.84 71.77L360.99 72.33L362.1 72.94L363.19 73.59L364.26 74.28L365.29 75.01L366.3 75.77L367.27 76.58L368.21 77.42L369.12 78.29L370 79.2L370.84 80.14L371.64 81.12L372.41 82.12L373.14 83.16L373.83 84.22L374.48 85.31L375.09 86.43L375.65 87.57L376.17 88.74L376.65 89.93L377.08 91.15L377.46 92.38L377.8 93.64L378.09 94.91L378.33 96.2L378.51 97.51L378.53 97.69L313.24 97.69L313.25 97.51L313.44 96.2L313.68 94.91L313.97 93.64L314.3 92.38L314.69 91.15L315.12 89.93L315.6 88.74L316.12 87.57L316.68 86.43L317.29 85.31L317.94 84.22L318.63 83.16L319.36 82.12L320.12 81.12L320.93 80.14L321.77 79.2L322.64 78.29L323.55 77.42L324.49 76.58L325.47 75.77L326.47 75.01L327.51 74.28L328.57 73.59L329.66 72.94L330.78 72.33L331.93 71.77L333.09 71.24L334.28 70.77L335.5 70.34L336.73 69.95L337.99 69.61L339.26 69.33L340.55 69.09L341.86 68.9L343.19 68.77L344.53 68.69L345.88 68.66L347.24 68.69L348.58 68.77Z" id="bwO1HpSLy"></path><path d="M317.68 354.07L318.98 356.45L320.18 358.88L321.29 361.36L322.3 363.9L323.22 366.48L324.04 369.1L324.75 371.77L325.37 374.48L325.87 377.23L326.27 380.02L326.56 382.84L326.73 385.69L326.79 388.57L326.73 391.45L326.56 394.3L326.27 397.12L325.87 399.91L325.37 402.66L324.75 405.37L324.04 408.04L323.22 410.66L322.3 413.25L321.29 415.78L320.18 418.27L318.98 420.7L317.68 423.08L316.3 425.4L314.84 427.66L313.29 429.86L311.66 432L309.95 434.07L308.16 436.08L306.3 438.01L304.36 439.87L302.36 441.66L300.29 443.37L298.15 445L295.95 446.55L293.68 448.02L291.36 449.4L288.99 450.69L286.55 451.9L284.07 453L281.54 454.02L278.96 454.94L276.33 455.75L273.66 456.47L270.95 457.08L268.2 457.59L265.42 457.99L262.6 458.27L259.75 458.45L256.87 458.5L253.99 458.45L251.14 458.27L248.32 457.99L245.53 457.59L242.78 457.08L240.07 456.47L237.4 455.75L234.77 454.94L232.19 454.02L229.66 453L227.17 451.9L224.74 450.69L222.36 449.4L220.04 448.02L217.78 446.55L215.58 445L213.44 443.37L211.37 441.66L209.36 439.87L207.43 438.01L205.56 436.08L203.78 434.07L202.07 432L200.44 429.86L198.88 427.66L197.42 425.4L196.04 423.08L194.75 420.7L193.54 418.27L192.43 415.78L191.42 413.25L190.5 410.66L189.68 408.04L188.97 405.37L188.36 402.66L187.85 399.91L187.45 397.12L187.17 394.3L186.99 391.45L186.93 388.57L186.99 385.69L187.17 382.84L187.45 380.02L187.85 377.23L188.36 374.48L188.97 371.77L189.68 369.1L190.5 366.48L191.42 363.9L192.43 361.36L193.54 358.88L194.75 356.45L196.04 354.07L197.42 351.75L198.88 349.49L200.06 347.81L313.66 347.81L314.84 349.49L316.3 351.75L316.3 351.75L317.68 354.07ZM234.9 414.01L233.73 414.59L232.65 415.32L231.68 416.18L230.82 417.16L230.09 418.24L229.5 419.41L229.07 420.66L228.8 421.98L228.7 423.36L228.8 424.74L229.07 426.06L229.5 427.31L230.09 428.48L230.82 429.56L231.68 430.53L232.65 431.39L233.73 432.12L234.9 432.71L236.16 433.15L237.48 433.42L238.86 433.51L240.23 433.42L241.55 433.15L242.8 432.71L243.97 432.12L245.05 431.39L246.02 430.53L246.88 429.56L247.61 428.48L248.2 427.31L248.63 426.06L248.9 424.74L248.99 423.36L248.9 421.98L248.63 420.66L248.2 419.41L247.61 418.24L246.88 417.16L246.02 416.18L245.05 415.32L243.97 414.59L242.8 414.01L241.55 413.57L240.23 413.3L238.86 413.21L237.48 413.3L236.16 413.57L236.16 413.57L234.9 414.01ZM273.71 413.68L272.53 414.27L271.45 415L270.48 415.85L269.62 416.83L268.89 417.91L268.3 419.08L267.87 420.33L267.6 421.65L267.51 423.03L267.6 424.41L267.87 425.73L268.3 426.98L268.89 428.15L269.62 429.23L270.48 430.21L271.45 431.07L272.53 431.8L273.71 432.38L274.96 432.82L276.28 433.09L277.66 433.18L279.03 433.09L280.35 432.82L281.6 432.38L282.77 431.8L283.85 431.07L284.82 430.21L285.68 429.23L286.41 428.15L287 426.98L287.43 425.73L287.7 424.41L287.79 423.03L287.7 421.65L287.43 420.33L287 419.08L286.41 417.91L285.68 416.83L284.82 415.85L283.85 415L282.77 414.27L281.6 413.68L280.35 413.24L279.03 412.97L277.66 412.88L276.28 412.97L274.96 413.24L274.96 413.24L273.71 413.68ZM252.92 382.6L251.74 383.19L250.66 383.92L249.69 384.77L248.83 385.75L248.1 386.83L247.51 388L247.08 389.25L246.81 390.58L246.72 391.95L246.81 393.33L247.08 394.65L247.51 395.91L248.1 397.08L248.83 398.16L249.69 399.13L250.66 399.99L251.74 400.72L252.92 401.31L254.17 401.74L255.49 402.01L256.87 402.11L258.24 402.01L259.56 401.74L260.81 401.31L261.98 400.72L263.06 399.99L264.03 399.13L264.89 398.16L265.62 397.08L266.21 395.91L266.64 394.65L266.91 393.33L267 391.95L266.91 390.58L266.64 389.25L266.21 388L265.62 386.83L264.89 385.75L264.03 384.77L263.06 383.92L261.98 383.19L260.81 382.6L259.56 382.16L258.24 381.89L256.87 381.8L255.49 381.89L254.17 382.16L254.17 382.16L252.92 382.6ZM214.84 382.52L213.67 383.11L212.59 383.84L211.62 384.7L210.76 385.67L210.03 386.75L209.44 387.93L209.01 389.18L208.74 390.5L208.64 391.88L208.74 393.26L209.01 394.58L209.44 395.83L210.03 397L210.76 398.08L211.62 399.06L212.59 399.91L213.67 400.64L214.84 401.23L216.1 401.67L217.42 401.94L218.8 402.03L220.17 401.94L221.49 401.67L222.74 401.23L223.91 400.64L224.99 399.91L225.97 399.06L226.83 398.08L227.56 397L228.15 395.83L228.58 394.58L228.85 393.26L228.95 391.88L228.85 390.5L228.58 389.18L228.15 387.93L227.56 386.75L226.83 385.67L225.97 384.7L224.99 383.84L223.91 383.11L222.74 382.52L221.49 382.09L220.17 381.82L218.8 381.73L217.42 381.82L216.1 382.09L216.1 382.09L214.84 382.52ZM288.27 380.66L287.1 381.25L286.02 381.98L285.04 382.83L284.18 383.81L283.45 384.89L282.86 386.06L282.43 387.31L282.16 388.64L282.06 390.01L282.16 391.39L282.43 392.71L282.86 393.97L283.45 395.14L284.18 396.22L285.04 397.19L286.02 398.05L287.1 398.78L288.27 399.37L289.52 399.8L290.84 400.07L292.22 400.17L293.59 400.07L294.92 399.8L296.17 399.37L297.34 398.78L298.42 398.05L299.39 397.19L300.25 396.22L300.98 395.14L301.57 393.97L302 392.71L302.27 391.39L302.37 390.01L302.27 388.64L302 387.31L301.57 386.06L300.98 384.89L300.25 383.81L299.39 382.83L298.42 381.98L297.34 381.25L296.17 380.66L294.92 380.22L293.59 379.96L292.22 379.86L290.84 379.96L289.52 380.22L289.52 380.22L288.27 380.66ZM231.34 362.59L230.39 363.37L229.61 364.32L229.02 365.4L228.65 366.6L228.52 367.89L228.65 369.17L229.02 370.37L229.61 371.46L230.39 372.4L231.34 373.18L232.42 373.77L233.62 374.14L234.91 374.27L236.19 374.14L237.39 373.77L238.47 373.18L239.42 372.4L240.2 371.46L240.79 370.37L241.16 369.17L241.29 367.89L241.16 366.6L240.79 365.4L240.2 364.32L239.42 363.37L238.47 362.59L237.39 362L236.19 361.63L234.91 361.5L233.62 361.63L232.42 362L232.42 362L231.34 362.59ZM274.4 362.59L273.46 363.37L272.67 364.32L272.09 365.4L271.71 366.6L271.58 367.89L271.71 369.17L272.09 370.37L272.67 371.46L273.46 372.4L274.4 373.18L275.49 373.77L276.68 374.14L277.97 374.27L279.26 374.14L280.45 373.77L281.54 373.18L282.48 372.4L283.26 371.46L283.85 370.37L284.23 369.17L284.35 367.89L284.23 366.6L283.85 365.4L283.26 364.32L282.48 363.37L281.54 362.59L280.45 362L279.26 361.63L277.97 361.5L276.68 361.63L275.49 362L275.49 362L274.4 362.59Z" id="bbm6hCmCT6"></path><path d="M306.01 1185.1C319.39 1185.1 426.39 1185.1 439.76 1185.1C447.67 1185.1 454.09 1178.68 454.09 1170.77C454.09 1169.82 454.09 1165.04 454.09 1156.44L291.68 1156.44L291.68 1170.77C295.96 1180.33 300.74 1185.1 306.01 1185.1Z" id="bMMuf95qd"></path></defs><g><g><g><use xlink:href="#bwO1HpSLy" opacity="1" fill="#000000" fill-opacity="1"></use></g><g><use xlink:href="#bbm6hCmCT6" opacity="1" fill="#000000" fill-opacity="1"></use><g><use xlink:href="#bbm6hCmCT6" opacity="1" fill-opacity="0" stroke="#000000" stroke-width="1" stroke-opacity="0"></use></g></g><g><use xlink:href="#bMMuf95qd" opacity="1" fill="#000000" fill-opacity="1"></use><g><use xlink:href="#bMMuf95qd" opacity="1" fill-opacity="0" stroke="#000000" stroke-width="1" stroke-opacity="0"></use></g></g></g></g></svg>