<?xml version="1.0" encoding="UTF-8" standalone="no"?>
<!DOCTYPE svg PUBLIC "-//W3C//DTD SVG 1.1//EN" "http://www.w3.org/Graphics/SVG/1.1/DTD/svg11.dtd">
<svg version="1.1" xmlns="http://www.w3.org/2000/svg" xmlns:xlink="http://www.w3.org/1999/xlink" preserveAspectRatio="xMidYMid meet" viewBox="0 0 535.5 535.5" width="535.5" height="535.5"><defs><path d="M197.52 1185.1C210.89 1185.1 317.89 1185.1 331.27 1185.1C339.18 1185.1 345.6 1178.68 345.6 1170.77C345.6 1169.82 345.6 1165.04 345.6 1156.44L183.19 1156.44L183.19 1170.77C187.47 1180.33 192.24 1185.1 197.52 1185.1Z" id="ewZ6IQGLo"></path><path d="M96.4 294.81C95.78 199.17 96.4 149.59 96.4 117.93C96.4 90.7 104.4 65.74 117.7 46.33C134.62 21.62 160.13 5.89 188.67 5.89C235.31 5.89 301.41 5.89 329.59 5.89C380.55 5.89 421.87 47.2 421.87 98.16C421.87 184.69 421.87 354.82 421.87 442.05C421.87 491.08 382.12 530.83 333.09 530.83C285.75 530.83 239.36 530.83 193.73 530.83C140.01 530.83 96.49 487.22 96.6 433.5C96.71 378.5 96.64 332.27 96.4 294.81Z" id="a1kqplmTVE"></path><path d="M272.33 290.74L276.44 291.33L280.49 292.07L284.49 292.97L288.42 294.03L292.3 295.24L296.1 296.59L299.84 298.08L303.5 299.72L307.09 301.49L310.59 303.4L314.02 305.43L317.35 307.59L320.6 309.88L323.75 312.29L326.81 314.81L329.76 317.44L332.61 320.19L335.36 323.04L338 326L340.52 329.05L342.92 332.2L345.21 335.45L347.37 338.79L349.41 342.21L351.31 345.72L353.08 349.3L354.72 352.96L356.21 356.7L357.57 360.51L358.77 364.38L359.83 368.32L360.73 372.31L361.48 376.37L362.06 380.47L362.49 384.63L362.74 388.83L362.83 393.08L362.74 397.33L362.49 401.53L362.06 405.69L361.48 409.8L360.73 413.85L359.83 417.85L358.77 421.78L357.57 425.66L356.21 429.46L354.72 433.2L353.08 436.86L351.31 440.45L349.41 443.95L347.37 447.38L345.21 450.71L342.92 453.96L340.52 457.11L338 460.17L335.36 463.12L332.61 465.97L329.76 468.72L326.81 471.35L323.75 473.88L320.6 476.28L317.35 478.57L314.02 480.73L310.59 482.77L307.09 484.67L303.5 486.44L299.84 488.08L296.1 489.57L292.3 490.93L288.42 492.13L284.49 493.19L280.49 494.09L276.44 494.84L272.33 495.42L268.17 495.84L263.97 496.1L259.72 496.19L255.47 496.1L251.27 495.84L247.11 495.42L243.01 494.84L238.95 494.09L234.96 493.19L231.02 492.13L227.15 490.93L223.34 489.57L219.6 488.08L215.94 486.44L212.36 484.67L208.85 482.77L205.43 480.73L202.09 478.57L198.85 476.28L195.69 473.88L192.64 471.35L189.68 468.72L186.83 465.97L184.08 463.12L181.45 460.17L178.93 457.11L176.52 453.96L174.23 450.71L172.07 447.38L170.04 443.95L168.13 440.45L166.36 436.86L164.72 433.2L163.23 429.46L161.88 425.66L160.67 421.78L159.61 417.85L158.71 413.85L157.97 409.8L157.38 405.69L156.96 401.53L156.7 397.33L156.62 393.08L156.7 388.83L156.96 384.63L157.38 380.47L157.97 376.37L158.71 372.31L159.61 368.32L160.67 364.38L161.88 360.51L163.23 356.7L164.72 352.96L166.36 349.3L168.13 345.72L170.04 342.21L172.07 338.79L174.23 335.45L176.52 332.2L178.93 329.05L181.45 326L184.08 323.04L186.83 320.19L189.68 317.44L192.64 314.81L195.69 312.29L198.85 309.88L202.09 307.59L205.43 305.43L208.85 303.4L212.36 301.49L215.94 299.72L219.6 298.08L223.34 296.59L227.15 295.24L231.02 294.03L234.96 292.97L238.95 292.07L243.01 291.33L247.11 290.74L251.27 290.32L255.47 290.06L259.72 289.98L263.97 290.06L268.17 290.32L268.17 290.32L272.33 290.74ZM201.19 362.48L199.81 364.8L198.52 367.18L197.32 369.61L196.21 372.1L195.19 374.63L194.28 377.21L193.46 379.84L192.74 382.51L192.13 385.22L191.62 387.97L191.23 390.75L190.94 393.57L190.77 396.42L190.71 399.3L190.77 402.19L190.94 405.04L191.23 407.86L191.62 410.64L192.13 413.39L192.74 416.1L193.46 418.77L194.28 421.4L195.19 423.98L196.21 426.52L197.32 429L198.52 431.43L199.81 433.81L201.19 436.13L202.66 438.39L204.21 440.6L205.84 442.73L207.55 444.81L209.34 446.81L211.2 448.75L213.13 450.61L215.14 452.4L217.21 454.11L219.35 455.74L221.55 457.29L223.81 458.76L226.14 460.14L228.51 461.43L230.95 462.63L233.43 463.74L235.96 464.75L238.55 465.67L241.17 466.49L243.84 467.2L246.55 467.82L249.3 468.32L252.09 468.72L254.91 469.01L257.76 469.18L260.64 469.24L263.52 469.18L266.37 469.01L269.19 468.72L271.97 468.32L274.72 467.82L277.43 467.2L280.1 466.49L282.73 465.67L285.31 464.75L287.84 463.74L290.33 462.63L292.76 461.43L295.14 460.14L297.46 458.76L299.72 457.29L301.92 455.74L304.06 454.11L306.13 452.4L308.13 450.61L310.07 448.75L311.93 446.81L313.72 444.81L315.43 442.73L317.06 440.6L318.61 438.39L320.08 436.13L321.46 433.81L322.75 431.43L323.95 429L325.06 426.52L326.08 423.98L326.99 421.4L327.81 418.77L328.53 416.1L329.14 413.39L329.64 410.64L330.04 407.86L330.33 405.04L330.5 402.19L330.56 399.3L330.5 396.42L330.33 393.57L330.04 390.75L329.64 387.97L329.14 385.22L328.53 382.51L327.81 379.84L326.99 377.21L326.08 374.63L325.06 372.1L323.95 369.61L322.75 367.18L321.46 364.8L320.08 362.48L318.61 360.22L317.43 358.55L203.83 358.55L202.66 360.22L202.66 360.22L201.19 362.48ZM246.57 424.74L247.74 425.33L248.82 426.06L249.79 426.92L250.65 427.89L251.38 428.97L251.97 430.14L252.4 431.4L252.67 432.72L252.77 434.1L252.67 435.47L252.4 436.79L251.97 438.04L251.38 439.21L250.65 440.29L249.79 441.27L248.82 442.13L247.74 442.86L246.57 443.45L245.32 443.88L244 444.15L242.63 444.25L241.25 444.15L239.93 443.88L238.68 443.45L237.5 442.86L236.42 442.13L235.45 441.27L234.59 440.29L233.86 439.21L233.27 438.04L232.84 436.79L232.57 435.47L232.48 434.1L232.57 432.72L232.84 431.4L233.27 430.14L233.86 428.97L234.59 427.89L235.45 426.92L236.42 426.06L237.5 425.33L238.68 424.74L239.93 424.31L241.25 424.04L242.63 423.94L244 424.04L245.32 424.31L245.32 424.31L246.57 424.74ZM285.37 424.41L286.54 425L287.62 425.73L288.6 426.59L289.45 427.56L290.18 428.64L290.77 429.82L291.2 431.07L291.47 432.39L291.57 433.77L291.47 435.14L291.2 436.46L290.77 437.71L290.18 438.89L289.45 439.97L288.6 440.94L287.62 441.8L286.54 442.53L285.37 443.12L284.12 443.56L282.81 443.83L281.43 443.92L280.05 443.83L278.73 443.56L277.48 443.12L276.31 442.53L275.23 441.8L274.25 440.94L273.39 439.97L272.66 438.89L272.08 437.71L271.64 436.46L271.37 435.14L271.28 433.77L271.37 432.39L271.64 431.07L272.08 429.82L272.66 428.64L273.39 427.56L274.25 426.59L275.23 425.73L276.31 425L277.48 424.41L278.73 423.98L280.05 423.71L281.43 423.62L282.81 423.71L284.12 423.98L284.12 423.98L285.37 424.41ZM264.58 393.33L265.76 393.92L266.83 394.65L267.81 395.51L268.66 396.48L269.39 397.56L269.98 398.74L270.42 399.99L270.69 401.31L270.78 402.69L270.69 404.07L270.42 405.39L269.98 406.64L269.39 407.81L268.66 408.89L267.81 409.87L266.83 410.73L265.76 411.45L264.58 412.04L263.33 412.48L262.02 412.75L260.64 412.84L259.26 412.75L257.94 412.48L256.69 412.04L255.52 411.45L254.44 410.73L253.46 409.87L252.6 408.89L251.88 407.81L251.29 406.64L250.85 405.39L250.58 404.07L250.49 402.69L250.58 401.31L250.85 399.99L251.29 398.74L251.88 397.56L252.6 396.48L253.46 395.51L254.44 394.65L255.52 393.92L256.69 393.33L257.94 392.9L259.26 392.63L260.64 392.54L262.02 392.63L263.33 392.9L263.33 392.9L264.58 393.33ZM226.51 393.26L227.69 393.85L228.77 394.58L229.74 395.43L230.6 396.41L231.33 397.49L231.92 398.66L232.36 399.91L232.63 401.23L232.72 402.61L232.63 403.99L232.36 405.31L231.92 406.56L231.33 407.74L230.6 408.82L229.74 409.79L228.77 410.65L227.69 411.38L226.51 411.97L225.26 412.4L223.94 412.67L222.57 412.76L221.19 412.67L219.87 412.4L218.62 411.97L217.44 411.38L216.36 410.65L215.39 409.79L214.53 408.82L213.8 407.74L213.21 406.56L212.78 405.31L212.51 403.99L212.42 402.61L212.51 401.23L212.78 399.91L213.21 398.66L213.8 397.49L214.53 396.41L215.39 395.43L216.36 394.58L217.44 393.85L218.62 393.26L219.87 392.82L221.19 392.55L222.57 392.46L223.94 392.55L225.26 392.82L225.26 392.82L226.51 393.26ZM299.94 391.39L301.11 391.98L302.19 392.71L303.17 393.57L304.03 394.54L304.75 395.62L305.34 396.8L305.78 398.05L306.05 399.37L306.14 400.75L306.05 402.13L305.78 403.45L305.34 404.7L304.75 405.87L304.03 406.95L303.17 407.93L302.19 408.79L301.11 409.52L299.94 410.1L298.69 410.54L297.37 410.81L295.99 410.9L294.61 410.81L293.29 410.54L292.04 410.1L290.87 409.52L289.79 408.79L288.81 407.93L287.96 406.95L287.23 405.87L286.64 404.7L286.2 403.45L285.93 402.13L285.84 400.75L285.93 399.37L286.2 398.05L286.64 396.8L287.23 395.62L287.96 394.54L288.81 393.57L289.79 392.71L290.87 391.98L292.04 391.39L293.29 390.96L294.61 390.69L295.99 390.6L297.37 390.69L298.69 390.96L298.69 390.96L299.94 391.39ZM285.31 373.33L286.26 374.11L287.04 375.05L287.63 376.14L288 377.34L288.13 378.62L288 379.91L287.63 381.11L287.04 382.19L286.26 383.14L285.31 383.92L284.23 384.5L283.03 384.88L281.74 385.01L280.46 384.88L279.26 384.5L278.17 383.92L277.23 383.14L276.45 382.19L275.86 381.11L275.48 379.91L275.35 378.62L275.48 377.34L275.86 376.14L276.45 375.05L277.23 374.11L278.17 373.33L279.26 372.74L280.46 372.36L281.74 372.23L283.03 372.36L284.23 372.74L284.23 372.74L285.31 373.33ZM242.25 373.33L243.19 374.11L243.97 375.05L244.56 376.14L244.94 377.34L245.07 378.62L244.94 379.91L244.56 381.11L243.97 382.19L243.19 383.14L242.25 383.92L241.16 384.5L239.96 384.88L238.68 385.01L237.39 384.88L236.19 384.5L235.11 383.92L234.16 383.14L233.38 382.19L232.79 381.11L232.42 379.91L232.29 378.62L232.42 377.34L232.79 376.14L233.38 375.05L234.16 374.11L235.11 373.33L236.19 372.74L237.39 372.36L238.68 372.23L239.96 372.36L241.16 372.74L241.16 372.74L242.25 373.33Z" id="e3rE0iBKj9"></path><path d="M369.07 274.09L370.37 274.44L371.6 274.93L372.77 275.53L373.86 276.25L374.87 277.08L375.8 278L376.62 279.01L377.34 280.1L377.94 281.27L378.43 282.5L378.78 283.8L379 285.14L379.08 286.53L379 287.91L378.78 289.26L378.43 290.55L377.94 291.78L377.34 292.95L376.62 294.04L375.8 295.06L374.87 295.98L373.86 296.8L372.77 297.52L371.6 298.13L370.37 298.61L369.07 298.97L367.73 299.19L366.34 299.26L364.96 299.19L363.61 298.97L362.32 298.61L361.09 298.13L359.92 297.52L358.83 296.8L357.82 295.98L356.89 295.06L356.07 294.04L355.35 292.95L354.75 291.78L354.26 290.55L353.91 289.26L353.69 287.91L353.61 286.53L353.69 285.14L353.91 283.8L354.26 282.5L354.75 281.27L355.35 280.1L356.07 279.01L356.89 278L357.82 277.08L358.83 276.25L359.92 275.53L361.09 274.93L362.32 274.44L363.61 274.09L364.96 273.87L366.34 273.79L367.73 273.87L369.07 274.09ZM363.79 277.24L362.6 277.66L361.49 278.21L360.46 278.91L359.54 279.72L358.72 280.65L358.03 281.67L357.47 282.78L357.06 283.97L356.81 285.22L356.72 286.53L356.81 287.83L357.06 289.09L357.47 290.27L358.03 291.38L358.72 292.41L359.54 293.33L360.46 294.15L361.49 294.84L362.6 295.4L363.79 295.81L365.04 296.07L366.34 296.15L367.65 296.07L368.9 295.81L370.09 295.4L371.2 294.84L372.23 294.15L373.15 293.33L373.97 292.41L374.66 291.38L375.22 290.27L375.63 289.09L375.88 287.83L375.97 286.53L375.88 285.22L375.63 283.97L375.22 282.78L374.66 281.67L373.97 280.65L373.15 279.72L372.23 278.91L371.2 278.21L370.09 277.66L368.9 277.24L367.65 276.99L366.34 276.9L365.04 276.99L363.79 277.24Z" id="d4L2TECCV"></path><path d="M175.12 50.1L176.67 50.32L178.21 50.6L179.73 50.94L181.23 51.35L182.7 51.8L184.14 52.32L185.56 52.88L186.95 53.51L188.31 54.18L189.64 54.9L190.94 55.67L192.21 56.5L193.44 57.36L194.64 58.28L195.8 59.23L196.92 60.23L198 61.28L199.05 62.36L200.05 63.48L201 64.64L201.92 65.84L202.78 67.07L203.61 68.34L204.38 69.64L205.1 70.97L205.77 72.33L206.4 73.72L206.96 75.14L207.48 76.58L207.71 77.33L208.16 76.06L208.73 74.64L209.35 73.25L210.02 71.89L210.75 70.56L211.52 69.26L212.34 67.99L213.21 66.76L214.12 65.56L215.08 64.4L216.08 63.28L217.12 62.2L218.2 61.16L219.33 60.16L220.49 59.2L221.68 58.28L222.92 57.42L224.18 56.6L225.48 55.82L226.81 55.1L228.17 54.43L229.57 53.81L230.98 53.24L232.43 52.72L233.9 52.27L235.39 51.87L236.91 51.52L238.45 51.24L240.01 51.02L241.59 50.86L243.18 50.76L244.8 50.73L246.41 50.76L248 50.86L249.58 51.02L251.14 51.24L252.68 51.52L254.2 51.87L255.69 52.27L257.16 52.72L258.61 53.24L260.03 53.81L261.42 54.43L262.78 55.1L264.11 55.82L265.41 56.6L266.68 57.42L267.91 58.28L269.11 59.2L270.27 60.16L271.39 61.16L272.47 62.2L273.51 63.28L274.51 64.4L275.47 65.56L276.38 66.76L277.25 67.99L278.07 69.26L278.85 70.56L279.57 71.89L280.24 73.25L280.86 74.64L281.43 76.06L281.94 77.51L282.4 78.98L282.8 80.47L283.15 81.99L283.43 83.53L283.65 85.09L283.81 86.66L283.91 88.26L283.94 89.87L283.91 91.49L283.81 93.08L283.65 94.66L283.43 96.22L283.15 97.76L282.8 99.28L282.4 100.77L281.94 102.24L281.43 103.69L280.86 105.1L280.24 106.49L279.57 107.86L278.85 109.19L278.07 110.49L277.25 111.75L276.38 112.99L275.47 114.18L274.51 115.34L273.51 116.46L272.47 117.55L271.39 118.59L270.27 119.59L269.11 120.55L267.91 121.46L266.68 122.33L265.41 123.15L264.11 123.92L262.78 124.65L261.42 125.32L260.03 125.94L258.61 126.51L257.16 127.02L255.69 127.48L254.2 127.88L252.68 128.22L251.14 128.51L249.58 128.73L248 128.89L246.41 128.99L244.8 129.02L243.18 128.99L241.59 128.89L240.01 128.73L238.45 128.51L236.91 128.22L235.39 127.88L233.9 127.48L232.43 127.02L230.98 126.51L229.57 125.94L228.17 125.32L226.81 124.65L225.48 123.92L224.18 123.15L222.92 122.33L221.68 121.46L220.49 120.55L219.33 119.59L218.2 118.59L217.12 117.55L216.08 116.46L215.08 115.34L214.12 114.18L213.21 112.99L212.34 111.75L211.52 110.49L210.75 109.19L210.02 107.86L209.35 106.49L208.73 105.1L208.16 103.69L207.65 102.24L207.42 101.49L206.96 102.76L206.4 104.18L205.77 105.57L205.1 106.93L204.38 108.27L203.61 109.57L202.78 110.83L201.92 112.06L201 113.26L200.05 114.42L199.05 115.54L198 116.63L196.92 117.67L195.8 118.67L194.64 119.63L193.44 120.54L192.21 121.41L190.94 122.23L189.64 123L188.31 123.73L186.95 124.4L185.56 125.02L184.14 125.59L182.7 126.1L182.13 126.28L182.92 126.52L184.36 127.04L185.78 127.6L187.17 128.22L188.54 128.9L189.87 129.62L191.17 130.39L192.43 131.21L193.66 132.08L194.86 133L196.02 133.95L197.14 134.95L198.23 136L199.27 137.08L200.27 138.2L201.23 139.36L202.14 140.56L203.01 141.79L203.83 143.06L204.6 144.36L205.33 145.69L206 147.05L206.62 148.44L207.19 149.86L207.7 151.3L208.16 152.77L208.56 154.27L208.9 155.79L209.18 157.32L209.41 158.88L209.57 160.46L209.66 162.06L209.7 163.67L209.66 165.28L209.57 166.88L209.41 168.46L209.18 170.02L208.9 171.56L208.56 173.07L208.16 174.57L207.7 176.04L207.19 177.48L206.62 178.9L206 180.29L205.33 181.65L204.6 182.98L203.83 184.28L203.01 185.55L202.14 186.78L201.23 187.98L200.27 189.14L199.27 190.26L198.23 191.35L197.14 192.39L196.02 193.39L194.86 194.35L193.66 195.26L192.43 196.13L191.17 196.95L189.87 197.72L188.54 198.44L187.17 199.12L185.78 199.74L184.36 200.31L182.92 200.82L181.45 201.28L179.95 201.68L178.44 202.02L176.9 202.3L175.34 202.53L173.76 202.69L172.16 202.78L170.55 202.82L169.69 202.8L169.69 198.76L170.3 198.77L171.76 198.74L173.2 198.65L174.62 198.51L176.03 198.31L177.42 198.05L178.79 197.74L180.14 197.38L181.47 196.97L182.77 196.5L184.06 195.99L185.31 195.43L186.54 194.82L187.74 194.17L188.92 193.47L190.06 192.73L191.17 191.94L192.25 191.12L193.3 190.26L194.31 189.35L195.29 188.41L196.23 187.43L197.14 186.42L198 185.37L198.83 184.29L199.61 183.18L200.35 182.03L201.05 180.86L201.7 179.66L202.31 178.43L202.87 177.17L203.38 175.89L203.85 174.59L204.26 173.26L204.62 171.91L204.93 170.54L205.19 169.15L205.39 167.74L205.53 166.32L205.62 164.88L205.65 163.42L205.62 161.96L205.53 160.52L205.39 159.1L205.19 157.69L204.93 156.3L204.62 154.93L204.26 153.58L203.85 152.25L203.38 150.95L202.87 149.67L202.31 148.41L201.7 147.18L201.05 145.98L200.35 144.8L199.61 143.66L198.83 142.55L198 141.47L197.14 140.42L196.23 139.41L195.29 138.43L194.31 137.49L193.3 136.58L192.25 135.72L191.17 134.89L190.06 134.11L188.92 133.37L187.74 132.67L186.54 132.02L185.31 131.41L184.06 130.85L182.77 130.34L181.47 129.87L180.14 129.46L178.79 129.1L177.42 128.79L176.03 128.53L174.62 128.33L173.2 128.19L171.76 128.1L170.99 128.08L170.33 128.1L168.72 128.06L167.12 127.97L165.54 127.81L163.98 127.58L162.44 127.3L160.93 126.96L159.43 126.56L157.96 126.1L156.52 125.59L155.1 125.02L153.71 124.4L152.34 123.73L151.01 123L149.71 122.23L148.45 121.41L147.22 120.54L146.02 119.63L144.86 118.67L143.74 117.67L142.65 116.63L141.61 115.54L140.61 114.42L139.65 113.26L138.74 112.06L137.87 110.83L137.05 109.57L136.28 108.27L135.55 106.93L134.88 105.57L134.26 104.18L133.69 102.76L133.18 101.32L132.72 99.85L132.32 98.35L131.98 96.84L131.7 95.3L131.47 93.74L131.31 92.16L131.22 90.56L131.18 88.95L131.22 87.34L131.31 85.74L131.47 84.16L131.7 82.61L131.98 81.07L132.32 79.55L132.72 78.05L133.18 76.58L133.69 75.14L134.26 73.72L134.88 72.33L135.55 70.97L136.28 69.64L137.05 68.34L137.87 67.07L138.74 65.84L139.65 64.64L140.61 63.48L141.61 62.36L142.65 61.28L143.74 60.23L144.86 59.23L146.02 58.28L147.22 57.36L148.45 56.5L149.71 55.67L151.01 54.9L152.34 54.18L153.71 53.51L155.1 52.88L156.52 52.32L157.96 51.8L159.43 51.35L160.93 50.94L162.44 50.6L163.98 50.32L165.54 50.1L167.12 49.94L168.72 49.84L170.33 49.81L171.94 49.84L173.54 49.94L173.54 49.94L175.12 50.1ZM354.22 50.07L355.78 50.29L357.32 50.57L358.84 50.92L360.33 51.32L361.8 51.78L363.25 52.29L364.67 52.86L366.06 53.48L367.42 54.15L368.75 54.87L370.05 55.65L371.32 56.47L372.55 57.33L373.75 58.25L374.91 59.21L376.03 60.21L377.11 61.25L378.15 62.33L379.15 63.45L380.11 64.61L381.03 65.81L381.89 67.04L382.71 68.31L383.49 69.61L384.21 70.94L384.88 72.3L385.5 73.69L386.07 75.11L386.59 76.56L387.04 78.03L387.44 79.52L387.79 81.04L388.07 82.58L388.29 84.14L388.45 85.71L388.55 87.31L388.58 88.92L388.55 90.54L388.46 92.04L384.65 92.04L384.65 92.33L314.03 92.33L314.1 93L314.3 94.4L314.55 95.79L314.86 97.16L315.23 98.51L315.64 99.84L316.1 101.15L316.62 102.43L317.18 103.68L317.78 104.91L318.44 106.11L319.14 107.29L319.88 108.43L320.66 109.54L321.49 110.62L322.35 111.67L323.25 112.69L324.19 113.66L325.17 114.61L326.19 115.51L327.23 116.37L328.31 117.2L329.43 117.98L330.57 118.72L331.74 119.42L332.95 120.07L334.18 120.68L335.43 121.24L336.71 121.76L338.01 122.22L338.01 126.37L337.07 126.07L335.62 125.56L334.21 124.99L332.81 124.37L331.45 123.7L330.12 122.97L328.82 122.2L327.56 121.38L326.32 120.51L325.13 119.6L323.97 118.64L322.84 117.64L321.76 116.6L320.72 115.52L319.72 114.39L318.76 113.23L317.85 112.04L316.98 110.8L316.16 109.54L315.39 108.24L314.66 106.91L313.99 105.55L313.37 104.15L312.8 102.74L312.29 101.29L311.83 99.82L311.43 98.33L311.09 96.81L310.8 95.27L310.58 93.71L310.42 92.13L310.32 90.54L310.29 88.92L310.32 87.31L310.42 85.71L310.58 84.14L310.8 82.58L311.09 81.04L311.43 79.52L311.83 78.03L312.29 76.56L312.8 75.11L313.37 73.69L313.99 72.3L314.66 70.94L315.39 69.61L316.16 68.31L316.98 67.04L317.85 65.81L318.76 64.61L319.72 63.45L320.72 62.33L321.76 61.25L322.84 60.21L323.97 59.21L325.13 58.25L326.32 57.33L327.56 56.47L328.82 55.65L330.12 54.87L331.45 54.15L332.81 53.48L334.21 52.86L335.62 52.29L337.07 51.78L338.54 51.32L340.03 50.92L341.55 50.57L343.09 50.29L344.65 50.07L346.23 49.91L347.82 49.81L349.44 49.78L351.05 49.81L352.65 49.91L352.65 49.91L354.22 50.07ZM240.22 54.53L238.81 54.74L237.42 54.99L236.05 55.3L234.7 55.66L233.38 56.08L232.07 56.54L230.79 57.05L229.54 57.61L228.31 58.22L227.1 58.87L225.93 59.57L224.79 60.31L223.67 61.1L222.59 61.92L221.55 62.79L220.53 63.69L219.55 64.63L218.61 65.61L217.71 66.62L216.84 67.67L216.02 68.75L215.24 69.86L214.49 71.01L213.8 72.18L213.14 73.38L212.54 74.61L211.98 75.87L211.46 77.15L211 78.45L210.59 79.78L210.22 81.13L209.91 82.5L209.66 83.89L209.46 85.3L209.37 86.17L209.44 87.34L209.47 88.95L209.44 90.56L209.34 92.16L209.31 92.49L209.31 92.52L209.46 93.94L209.66 95.35L209.91 96.74L210.22 98.11L210.59 99.46L211 100.79L211.46 102.1L211.98 103.38L212.54 104.63L213.14 105.86L213.8 107.06L214.49 108.24L215.24 109.38L216.02 110.49L216.84 111.57L217.71 112.62L218.61 113.64L219.55 114.61L220.53 115.55L221.55 116.46L222.59 117.32L223.67 118.15L224.79 118.93L225.93 119.67L227.1 120.37L228.31 121.02L229.54 121.63L230.79 122.19L232.07 122.7L233.38 123.17L234.7 123.58L236.05 123.94L237.42 124.25L238.81 124.51L240.22 124.71L241.65 124.85L243.09 124.94L244.55 124.97L246 124.94L247.44 124.85L248.87 124.71L250.28 124.51L251.67 124.25L253.04 123.94L254.39 123.58L255.71 123.17L257.02 122.7L258.3 122.19L259.56 121.63L260.78 121.02L261.99 120.37L263.16 119.67L264.3 118.93L265.42 118.15L266.5 117.32L267.55 116.46L268.56 115.55L269.54 114.61L270.48 113.64L271.38 112.62L272.25 111.57L273.07 110.49L273.85 109.38L274.6 108.24L275.29 107.06L275.95 105.86L276.55 104.63L277.12 103.38L277.63 102.1L278.09 100.79L278.5 99.46L278.87 98.11L279.18 96.74L279.43 95.35L279.63 93.94L279.78 92.52L279.87 91.08L279.89 89.62L279.87 88.17L279.78 86.72L279.63 85.3L279.43 83.89L279.18 82.5L278.87 81.13L278.5 79.78L278.09 78.45L277.63 77.15L277.12 75.87L276.55 74.61L275.95 73.38L275.29 72.18L274.6 71.01L273.85 69.86L273.07 68.75L272.25 67.67L271.38 66.62L270.48 65.61L269.54 64.63L268.56 63.69L267.55 62.79L266.5 61.92L265.42 61.1L264.3 60.31L263.16 59.57L261.99 58.87L260.78 58.22L259.56 57.61L258.3 57.05L257.02 56.54L255.71 56.08L254.39 55.66L253.04 55.3L251.67 54.99L250.28 54.74L248.87 54.53L247.44 54.39L246 54.3L244.55 54.27L243.09 54.3L241.65 54.39L241.65 54.39L240.22 54.53ZM165.75 53.61L164.35 53.81L162.96 54.07L161.59 54.38L160.24 54.74L158.91 55.15L157.6 55.62L156.32 56.13L155.07 56.69L153.84 57.3L152.64 57.95L151.46 58.65L150.32 59.39L149.21 60.18L148.13 61L147.08 61.86L146.06 62.77L145.09 63.71L144.14 64.69L143.24 65.7L142.38 66.75L141.55 67.83L140.77 68.94L140.03 70.09L139.33 71.26L138.68 72.46L138.07 73.69L137.51 74.95L136.99 76.23L136.53 77.53L136.12 78.86L135.76 80.21L135.45 81.58L135.19 82.97L134.99 84.38L134.84 85.8L134.76 87.24L134.73 88.7L134.76 90.16L134.84 91.6L134.99 93.02L135.19 94.43L135.45 95.82L135.76 97.19L136.12 98.54L136.53 99.87L136.99 101.17L137.51 102.45L138.07 103.71L138.68 104.94L139.33 106.14L140.03 107.32L140.77 108.46L141.55 109.57L142.38 110.65L143.24 111.7L144.14 112.71L145.09 113.69L146.06 114.63L147.08 115.54L148.13 116.4L149.21 117.23L150.32 118.01L151.46 118.75L152.64 119.45L153.84 120.1L155.07 120.71L156.32 121.27L157.6 121.78L158.91 122.25L160.24 122.66L161.59 123.02L162.96 123.33L164.35 123.59L165.75 123.79L167.18 123.93L168.62 124.02L170.08 124.05L171.53 124.02L172.97 123.93L174.4 123.79L175.81 123.59L177.2 123.33L178.57 123.02L179.92 122.66L181.25 122.25L182.55 121.78L183.83 121.27L185.09 120.71L186.32 120.1L187.52 119.45L188.69 118.75L189.84 118.01L190.95 117.23L192.03 116.4L193.08 115.54L194.09 114.63L195.07 113.69L196.01 112.71L196.91 111.7L197.78 110.65L198.6 109.57L199.39 108.46L200.13 107.32L200.83 106.14L201.48 104.94L202.09 103.71L202.65 102.45L203.16 101.17L203.62 99.87L204.04 98.54L204.4 97.19L204.71 95.82L204.96 94.43L205.16 93.02L205.31 91.6L205.4 90.16L205.43 88.7L205.4 87.24L205.31 85.8L205.16 84.38L204.96 82.97L204.71 81.58L204.4 80.21L204.04 78.86L203.62 77.53L203.16 76.23L202.65 74.95L202.09 73.69L201.48 72.46L200.83 71.26L200.13 70.09L199.39 68.94L198.6 67.83L197.78 66.75L196.91 65.7L196.01 64.69L195.07 63.71L194.09 62.77L193.08 61.86L192.03 61L190.95 60.18L189.84 59.39L188.69 58.65L187.52 57.95L186.32 57.3L185.09 56.69L183.83 56.13L182.55 55.62L181.25 55.15L179.92 54.74L178.57 54.38L177.2 54.07L175.81 53.81L174.4 53.61L172.97 53.47L171.53 53.38L170.08 53.35L168.62 53.38L167.18 53.47L167.18 53.47L165.75 53.61ZM284.6 87.69L308.82 87.69L308.82 92.66L284.6 92.66L284.6 92.66L284.6 87.69ZM344.86 53.59L343.46 53.79L342.07 54.04L340.7 54.35L339.35 54.71L338.02 55.13L336.71 55.59L335.43 56.1L334.18 56.66L332.95 57.27L331.74 57.92L330.57 58.62L329.43 59.36L328.31 60.15L327.23 60.97L326.19 61.84L325.17 62.74L324.19 63.68L323.25 64.66L322.35 65.67L321.49 66.72L320.66 67.8L319.88 68.91L319.14 70.06L318.44 71.23L317.78 72.43L317.18 73.66L316.62 74.92L316.1 76.2L315.64 77.5L315.23 78.83L314.86 80.18L314.55 81.55L314.3 82.94L314.1 84.35L313.95 85.78L313.87 87.22L313.86 87.37L384.51 87.37L384.51 87.22L384.42 85.78L384.27 84.35L384.07 82.94L383.82 81.55L383.51 80.18L383.15 78.83L382.73 77.5L382.27 76.2L381.76 74.92L381.19 73.66L380.59 72.43L379.93 71.23L379.24 70.06L378.49 68.91L377.71 67.8L376.89 66.72L376.02 65.67L375.12 64.66L374.18 63.68L373.2 62.74L372.19 61.84L371.14 60.97L370.06 60.15L368.94 59.36L367.8 58.62L366.63 57.92L365.43 57.27L364.2 56.66L362.94 56.1L361.66 55.59L360.35 55.13L359.03 54.71L357.68 54.35L356.31 54.04L354.92 53.79L353.51 53.59L352.08 53.44L350.64 53.35L349.19 53.32L347.73 53.35L346.29 53.44L346.29 53.44L344.86 53.59Z" id="b2cF5ZBs9L"></path><path d="M259.64 186.69L259.64 187.42L259.64 187.42L259.64 187.94L259.64 187.22L259.64 187.22L259.64 186.69L259.64 186.69Z" id="cu07NHcvq"></path><path d="M272.51 159.86L237.29 221.19L272.51 221.19L247.35 265.49L342.93 204.15L292.63 204.15L327.84 159.86L272.51 159.86Z" id="foD8bnnbD"></path></defs><g><g><g><use xlink:href="#ewZ6IQGLo" opacity="1" fill="#000000" fill-opacity="1"></use><g><use xlink:href="#ewZ6IQGLo" opacity="1" fill-opacity="0" stroke="#000000" stroke-width="1" stroke-opacity="0"></use></g></g><g><g><use xlink:href="#a1kqplmTVE" opacity="1" fill-opacity="0" stroke="#000000" stroke-width="10" stroke-opacity="1"></use></g></g><g><use xlink:href="#e3rE0iBKj9" opacity="1" fill="#000000" fill-opacity="1"></use></g><g><use xlink:href="#d4L2TECCV" opacity="1" fill="#060606" fill-opacity="1"></use></g><g><use xlink:href="#b2cF5ZBs9L" opacity="1" fill="#0e0e0e" fill-opacity="1"></use><g><use xlink:href="#b2cF5ZBs9L" opacity="1" fill-opacity="0" stroke="#000000" stroke-width="3" stroke-opacity="1"></use></g></g><g><use xlink:href="#cu07NHcvq" opacity="1" fill="#171717" fill-opacity="1"></use></g><g><use xlink:href="#foD8bnnbD" opacity="1" fill="#000000" fill-opacity="1"></use></g></g></g></svg>